<svg xmlns="http://www.w3.org/2000/svg" xmlns:xlink="http://www.w3.org/1999/xlink" width="516" zoomAndPan="magnify" viewBox="0 0 386.88 284.999983" height="380" preserveAspectRatio="xMidYMid meet" version="1.0"><defs><clipPath id="f447ef3e15"><path d="M 0 0.0429688 L 386.761719 0.0429688 L 386.761719 284.953125 L 0 284.953125 Z M 0 0.0429688 " clip-rule="nonzero"/></clipPath><clipPath id="adcf3dc005"><path d="M 58.136719 189 L 207 189 L 207 279 L 58.136719 279 Z M 58.136719 189 " clip-rule="nonzero"/></clipPath><clipPath id="787c8999be"><path d="M 58.136719 129 L 311 129 L 311 276 L 58.136719 276 Z M 58.136719 129 " clip-rule="nonzero"/></clipPath><clipPath id="fd1325b81e"><path d="M 162.628906 6.976562 L 313.785156 6.976562 L 313.785156 94.613281 L 162.628906 94.613281 Z M 162.628906 6.976562 " clip-rule="nonzero"/></clipPath><clipPath id="ed38693945"><path d="M 310.609375 92.195312 L 313.785156 92.195312 L 313.785156 215.492188 L 310.609375 215.492188 Z M 310.609375 92.195312 " clip-rule="nonzero"/></clipPath></defs><g clip-path="url(#f447ef3e15)"><path fill="#ffffff" d="M 0 0.0429688 L 386.878906 0.0429688 L 386.878906 1454.59375 L 0 1454.59375 Z M 0 0.0429688 " fill-opacity="1" fill-rule="nonzero"/><path fill="#ffffff" d="M 0 0.0429688 L 386.878906 0.0429688 L 386.878906 284.957031 L 0 284.957031 Z M 0 0.0429688 " fill-opacity="1" fill-rule="nonzero"/><path fill="#a2c3e4" d="M 0 0.0429688 L 386.878906 0.0429688 L 386.878906 284.957031 L 0 284.957031 Z M 0 0.0429688 " fill-opacity="1" fill-rule="nonzero"/></g><g clip-path="url(#adcf3dc005)"><path fill="#364852" d="M 206.1875 278.953125 L 58.136719 193.421875 L 58.136719 189.882812 L 206.1875 275.414062 L 206.1875 278.953125 " fill-opacity="1" fill-rule="nonzero"/></g><path fill="#30383f" d="M 310.695312 218.574219 L 206.1875 278.953125 L 206.1875 275.414062 L 310.695312 215.035156 L 310.695312 218.574219 " fill-opacity="1" fill-rule="nonzero"/><g clip-path="url(#787c8999be)"><path fill="#506c7f" d="M 206.191406 275.433594 L 58.140625 189.898438 L 162.644531 129.523438 L 310.695312 215.054688 L 206.191406 275.433594 " fill-opacity="1" fill-rule="nonzero"/></g><path fill="#364852" d="M 152.585938 140.945312 L 160.453125 145.492188 L 164.382812 143.21875 L 156.519531 138.671875 L 152.585938 140.945312 " fill-opacity="1" fill-rule="nonzero"/><path fill="#364852" d="M 162.621094 146.746094 L 170.488281 151.289062 L 174.421875 149.015625 L 166.554688 144.472656 L 162.621094 146.746094 " fill-opacity="1" fill-rule="nonzero"/><path fill="#364852" d="M 172.660156 152.542969 L 180.523438 157.089844 L 184.457031 154.816406 L 176.589844 150.273438 L 172.660156 152.542969 " fill-opacity="1" fill-rule="nonzero"/><path fill="#364852" d="M 182.695312 158.34375 L 190.5625 162.886719 L 194.496094 160.613281 L 186.628906 156.070312 L 182.695312 158.34375 " fill-opacity="1" fill-rule="nonzero"/><path fill="#364852" d="M 204.53125 166.410156 L 196.664062 161.867188 L 192.730469 164.140625 L 200.597656 168.683594 L 204.53125 166.410156 " fill-opacity="1" fill-rule="nonzero"/><path fill="#364852" d="M 214.566406 172.210938 L 206.703125 167.664062 L 202.765625 169.9375 L 210.632812 174.484375 L 214.566406 172.210938 " fill-opacity="1" fill-rule="nonzero"/><path fill="#364852" d="M 224.605469 178.007812 L 216.738281 173.464844 L 212.804688 175.738281 L 220.671875 180.28125 L 224.605469 178.007812 " fill-opacity="1" fill-rule="nonzero"/><path fill="#364852" d="M 234.640625 183.808594 L 226.773438 179.261719 L 222.839844 181.535156 L 230.707031 186.082031 L 234.640625 183.808594 " fill-opacity="1" fill-rule="nonzero"/><path fill="#364852" d="M 232.875 187.332031 L 240.742188 191.878906 L 244.675781 189.605469 L 236.808594 185.058594 L 232.875 187.332031 " fill-opacity="1" fill-rule="nonzero"/><path fill="#364852" d="M 242.914062 193.132812 L 250.777344 197.675781 L 254.710938 195.402344 L 246.847656 190.859375 L 242.914062 193.132812 " fill-opacity="1" fill-rule="nonzero"/><path fill="#364852" d="M 252.949219 198.929688 L 260.816406 203.476562 L 264.75 201.203125 L 256.882812 196.65625 L 252.949219 198.929688 " fill-opacity="1" fill-rule="nonzero"/><path fill="#364852" d="M 262.984375 204.726562 L 270.851562 209.273438 L 274.785156 207 L 266.917969 202.457031 L 262.984375 204.726562 " fill-opacity="1" fill-rule="nonzero"/><path fill="#364852" d="M 284.820312 212.796875 L 276.953125 208.253906 L 273.023438 210.523438 L 280.890625 215.070312 L 284.820312 212.796875 " fill-opacity="1" fill-rule="nonzero"/><path fill="#364852" d="M 286.992188 214.050781 L 283.058594 216.324219 L 290.921875 220.867188 L 294.859375 218.597656 L 286.992188 214.050781 " fill-opacity="1" fill-rule="nonzero"/><path fill="#364852" d="M 142.464844 146.796875 L 150.328125 151.339844 L 158.195312 146.796875 L 150.328125 142.25 L 142.464844 146.796875 " fill-opacity="1" fill-rule="nonzero"/><path fill="#364852" d="M 152.5 152.59375 L 160.367188 157.136719 L 168.230469 152.59375 L 160.367188 148.046875 L 152.5 152.59375 " fill-opacity="1" fill-rule="nonzero"/><path fill="#364852" d="M 162.535156 158.390625 L 170.402344 162.9375 L 178.269531 158.390625 L 170.402344 153.847656 L 162.535156 158.390625 " fill-opacity="1" fill-rule="nonzero"/><path fill="#364852" d="M 172.574219 164.191406 L 180.441406 168.734375 L 188.304688 164.191406 L 180.441406 159.644531 L 172.574219 164.191406 " fill-opacity="1" fill-rule="nonzero"/><path fill="#364852" d="M 198.34375 169.988281 L 190.472656 165.445312 L 182.609375 169.988281 L 190.476562 174.53125 L 198.34375 169.988281 " fill-opacity="1" fill-rule="nonzero"/><path fill="#364852" d="M 208.375 175.785156 L 200.511719 171.242188 L 192.644531 175.785156 L 200.511719 180.332031 L 208.375 175.785156 " fill-opacity="1" fill-rule="nonzero"/><path fill="#364852" d="M 218.414062 181.585938 L 210.546875 177.039062 L 202.679688 181.585938 L 210.546875 186.128906 L 218.414062 181.585938 " fill-opacity="1" fill-rule="nonzero"/><path fill="#364852" d="M 228.449219 187.382812 L 220.585938 182.839844 L 212.71875 187.382812 L 220.585938 191.929688 L 228.449219 187.382812 " fill-opacity="1" fill-rule="nonzero"/><path fill="#364852" d="M 222.753906 193.183594 L 230.621094 197.726562 L 238.488281 193.183594 L 230.621094 188.636719 L 222.753906 193.183594 " fill-opacity="1" fill-rule="nonzero"/><path fill="#364852" d="M 232.792969 198.980469 L 240.65625 203.523438 L 248.523438 198.980469 L 240.65625 194.433594 L 232.792969 198.980469 " fill-opacity="1" fill-rule="nonzero"/><path fill="#364852" d="M 242.828125 204.777344 L 250.695312 209.324219 L 258.558594 204.777344 L 250.695312 200.234375 L 242.828125 204.777344 " fill-opacity="1" fill-rule="nonzero"/><path fill="#364852" d="M 252.863281 210.574219 L 260.730469 215.121094 L 268.597656 210.574219 L 260.730469 206.03125 L 252.863281 210.574219 " fill-opacity="1" fill-rule="nonzero"/><path fill="#364852" d="M 278.632812 216.375 L 270.765625 211.828125 L 262.898438 216.375 L 270.765625 220.921875 L 278.632812 216.375 " fill-opacity="1" fill-rule="nonzero"/><path fill="#364852" d="M 272.9375 222.171875 L 280.800781 226.714844 L 288.667969 222.171875 L 280.800781 217.625 L 272.9375 222.171875 " fill-opacity="1" fill-rule="nonzero"/><path fill="#364852" d="M 132.34375 152.644531 L 140.207031 157.1875 L 148.074219 152.644531 L 140.207031 148.097656 L 132.34375 152.644531 " fill-opacity="1" fill-rule="nonzero"/><path fill="#364852" d="M 142.378906 158.441406 L 150.246094 162.984375 L 158.109375 158.441406 L 150.246094 153.898438 L 142.378906 158.441406 " fill-opacity="1" fill-rule="nonzero"/><path fill="#364852" d="M 152.414062 164.238281 L 160.28125 168.785156 L 168.148438 164.238281 L 160.28125 159.695312 L 152.414062 164.238281 " fill-opacity="1" fill-rule="nonzero"/><path fill="#364852" d="M 162.449219 170.039062 L 170.316406 174.582031 L 178.183594 170.039062 L 170.316406 165.492188 L 162.449219 170.039062 " fill-opacity="1" fill-rule="nonzero"/><path fill="#364852" d="M 188.21875 175.835938 L 180.351562 171.292969 L 172.484375 175.835938 L 180.351562 180.378906 L 188.21875 175.835938 " fill-opacity="1" fill-rule="nonzero"/><path fill="#364852" d="M 198.253906 181.632812 L 190.390625 177.089844 L 182.523438 181.632812 L 190.390625 186.175781 L 198.253906 181.632812 " fill-opacity="1" fill-rule="nonzero"/><path fill="#364852" d="M 208.292969 187.433594 L 200.425781 182.886719 L 192.558594 187.433594 L 200.425781 191.976562 L 208.292969 187.433594 " fill-opacity="1" fill-rule="nonzero"/><path fill="#364852" d="M 218.328125 193.230469 L 210.460938 188.6875 L 202.597656 193.230469 L 210.460938 197.777344 L 218.328125 193.230469 " fill-opacity="1" fill-rule="nonzero"/><path fill="#364852" d="M 212.628906 199.03125 L 220.5 203.570312 L 228.363281 199.03125 L 220.5 194.484375 L 212.628906 199.03125 " fill-opacity="1" fill-rule="nonzero"/><path fill="#364852" d="M 222.667969 204.828125 L 230.535156 209.371094 L 238.402344 204.828125 L 230.535156 200.285156 L 222.667969 204.828125 " fill-opacity="1" fill-rule="nonzero"/><path fill="#364852" d="M 232.707031 210.625 L 240.574219 215.171875 L 248.4375 210.625 L 240.574219 206.082031 L 232.707031 210.625 " fill-opacity="1" fill-rule="nonzero"/><path fill="#364852" d="M 242.742188 216.421875 L 250.605469 220.96875 L 258.476562 216.421875 L 250.605469 211.878906 L 242.742188 216.421875 " fill-opacity="1" fill-rule="nonzero"/><path fill="#364852" d="M 268.511719 222.222656 L 260.644531 217.675781 L 252.777344 222.222656 L 260.644531 226.765625 L 268.511719 222.222656 " fill-opacity="1" fill-rule="nonzero"/><path fill="#364852" d="M 262.8125 228.019531 L 270.679688 232.5625 L 278.546875 228.019531 L 270.679688 223.476562 L 262.8125 228.019531 " fill-opacity="1" fill-rule="nonzero"/><path fill="#364852" d="M 122.21875 158.492188 L 130.082031 163.035156 L 137.953125 158.492188 L 130.082031 153.945312 L 122.21875 158.492188 " fill-opacity="1" fill-rule="nonzero"/><path fill="#364852" d="M 132.253906 164.289062 L 140.121094 168.835938 L 147.988281 164.289062 L 140.121094 159.746094 L 132.253906 164.289062 " fill-opacity="1" fill-rule="nonzero"/><path fill="#364852" d="M 142.292969 170.085938 L 150.15625 174.632812 L 158.023438 170.085938 L 150.15625 165.542969 L 142.292969 170.085938 " fill-opacity="1" fill-rule="nonzero"/><path fill="#364852" d="M 152.328125 175.886719 L 160.195312 180.429688 L 168.058594 175.886719 L 160.195312 171.339844 L 152.328125 175.886719 " fill-opacity="1" fill-rule="nonzero"/><path fill="#364852" d="M 178.097656 181.683594 L 170.230469 177.140625 L 162.363281 181.683594 L 170.230469 186.230469 L 178.097656 181.683594 " fill-opacity="1" fill-rule="nonzero"/><path fill="#364852" d="M 188.132812 187.484375 L 180.265625 182.9375 L 172.402344 187.484375 L 180.265625 192.027344 L 188.132812 187.484375 " fill-opacity="1" fill-rule="nonzero"/><path fill="#364852" d="M 198.171875 193.28125 L 190.304688 188.734375 L 182.4375 193.28125 L 190.304688 197.824219 L 198.171875 193.28125 " fill-opacity="1" fill-rule="nonzero"/><path fill="#364852" d="M 208.207031 199.078125 L 200.339844 194.535156 L 192.472656 199.078125 L 200.339844 203.625 L 208.207031 199.078125 " fill-opacity="1" fill-rule="nonzero"/><path fill="#364852" d="M 202.507812 204.878906 L 210.375 209.421875 L 218.242188 204.878906 L 210.375 200.332031 L 202.507812 204.878906 " fill-opacity="1" fill-rule="nonzero"/><path fill="#364852" d="M 212.546875 210.675781 L 220.410156 215.222656 L 228.277344 210.675781 L 220.410156 206.132812 L 212.546875 210.675781 " fill-opacity="1" fill-rule="nonzero"/><path fill="#364852" d="M 222.582031 216.472656 L 230.449219 221.019531 L 238.316406 216.472656 L 230.449219 211.929688 L 222.582031 216.472656 " fill-opacity="1" fill-rule="nonzero"/><path fill="#364852" d="M 232.617188 222.273438 L 240.484375 226.816406 L 248.351562 222.273438 L 240.484375 217.726562 L 232.617188 222.273438 " fill-opacity="1" fill-rule="nonzero"/><path fill="#364852" d="M 250.523438 223.523438 L 242.65625 228.070312 L 250.523438 232.617188 L 260.558594 238.410156 L 268.425781 233.871094 L 258.386719 228.070312 L 250.523438 223.523438 " fill-opacity="1" fill-rule="nonzero"/><path fill="#364852" d="M 112.097656 164.339844 L 119.960938 168.882812 L 127.832031 164.339844 L 119.960938 159.792969 L 112.097656 164.339844 " fill-opacity="1" fill-rule="nonzero"/><path fill="#364852" d="M 122.132812 170.136719 L 130 174.683594 L 137.863281 170.136719 L 130 165.59375 L 122.132812 170.136719 " fill-opacity="1" fill-rule="nonzero"/><path fill="#364852" d="M 132.167969 175.933594 L 140.035156 180.480469 L 147.902344 175.933594 L 140.035156 171.390625 L 132.167969 175.933594 " fill-opacity="1" fill-rule="nonzero"/><path fill="#364852" d="M 142.207031 181.734375 L 150.074219 186.277344 L 157.9375 181.734375 L 150.074219 177.1875 L 142.207031 181.734375 " fill-opacity="1" fill-rule="nonzero"/><path fill="#364852" d="M 198.082031 204.925781 L 190.21875 200.378906 L 188.046875 199.128906 L 180.183594 194.585938 L 178.011719 193.332031 L 170.144531 188.785156 L 160.109375 182.988281 L 152.242188 187.53125 L 162.28125 193.332031 L 170.144531 197.875 L 172.3125 199.128906 L 180.183594 203.671875 L 182.351562 204.925781 L 190.21875 209.46875 L 192.386719 210.722656 L 200.253906 215.269531 L 208.121094 210.726562 L 200.253906 206.179688 L 198.082031 204.925781 " fill-opacity="1" fill-rule="nonzero"/><path fill="#364852" d="M 202.425781 216.523438 L 210.289062 221.070312 L 218.15625 216.523438 L 210.289062 211.980469 L 202.425781 216.523438 " fill-opacity="1" fill-rule="nonzero"/><path fill="#364852" d="M 212.460938 222.320312 L 220.328125 226.863281 L 228.191406 222.324219 L 220.328125 217.777344 L 212.460938 222.320312 " fill-opacity="1" fill-rule="nonzero"/><path fill="#364852" d="M 222.496094 228.121094 L 230.363281 232.664062 L 238.230469 228.121094 L 230.363281 223.574219 L 222.496094 228.121094 " fill-opacity="1" fill-rule="nonzero"/><path fill="#364852" d="M 232.535156 233.917969 L 240.398438 238.460938 L 248.265625 233.917969 L 240.398438 229.375 L 232.535156 233.917969 " fill-opacity="1" fill-rule="nonzero"/><path fill="#364852" d="M 242.570312 239.71875 L 250.4375 244.257812 L 258.304688 239.71875 L 250.4375 235.171875 L 242.570312 239.71875 " fill-opacity="1" fill-rule="nonzero"/><path fill="#364852" d="M 293.8125 211.789062 L 298.773438 214.65625 C 299.578125 215.121094 299.476562 215.929688 298.550781 216.460938 C 297.625 217 296.226562 217.054688 295.425781 216.59375 L 290.460938 213.726562 C 289.660156 213.261719 289.761719 212.453125 290.683594 211.917969 C 291.613281 211.382812 293.011719 211.324219 293.8125 211.789062 " fill-opacity="1" fill-rule="nonzero"/><path fill="#364852" d="M 169.230469 239.925781 C 167.296875 241.042969 164.101562 241.042969 162.167969 239.925781 L 119.597656 215.335938 C 117.664062 214.21875 117.695312 212.386719 119.628906 211.269531 L 144.691406 196.792969 C 146.625 195.675781 149.785156 195.660156 151.722656 196.773438 L 194.292969 221.367188 C 196.226562 222.484375 196.226562 224.332031 194.292969 225.449219 Z M 197.144531 221.3125 L 151.84375 195.140625 C 149.878906 194.003906 146.746094 194.003906 144.78125 195.144531 L 116.742188 211.339844 C 114.808594 212.457031 114.808594 214.269531 116.773438 215.40625 L 162.074219 241.578125 C 164.007812 242.695312 167.140625 242.695312 169.078125 241.578125 L 197.117188 225.378906 C 199.082031 224.242188 199.082031 222.433594 197.144531 221.3125 " fill-opacity="1" fill-rule="nonzero"/><g clip-path="url(#fd1325b81e)"><path fill="#506c7f" d="M 310.722656 94.28125 L 162.671875 8.746094 L 165.734375 6.976562 L 313.785156 92.511719 L 310.722656 94.28125 " fill-opacity="1" fill-rule="nonzero"/></g><g clip-path="url(#ed38693945)"><path fill="#30383f" d="M 313.785156 92.511719 L 313.785156 213.265625 L 310.722656 215.035156 L 310.722656 94.285156 L 313.785156 92.511719 " fill-opacity="1" fill-rule="nonzero"/></g><path fill="#364852" d="M 310.722656 215.035156 L 162.671875 129.503906 L 162.671875 8.75 L 310.722656 94.285156 L 310.722656 215.035156 " fill-opacity="1" fill-rule="nonzero"/><path fill="#ffffff" d="M 307.253906 97.210938 L 307.253906 208.105469 L 166.160156 126.589844 L 166.160156 15.699219 L 307.253906 97.210938 " fill-opacity="1" fill-rule="nonzero"/><path fill="#82c3ed" d="M 307.242188 102.179688 L 166.152344 20.667969 L 166.152344 15.699219 L 307.242188 97.210938 L 307.242188 102.179688 " fill-opacity="1" fill-rule="nonzero"/><path fill="#dddaf1" d="M 203.367188 78.183594 L 175.796875 62.257812 C 172.738281 60.488281 170.25 55.742188 170.25 51.652344 L 170.25 37.835938 C 170.25 33.75 172.738281 31.871094 175.796875 33.640625 L 203.367188 49.566406 C 206.429688 51.335938 208.914062 56.085938 208.914062 60.171875 L 208.914062 73.988281 C 208.914062 78.078125 206.429688 79.953125 203.367188 78.183594 " fill-opacity="1" fill-rule="nonzero"/><path fill="#364852" d="M 245.648438 79.789062 L 215.539062 62.394531 L 215.539062 56.601562 L 245.648438 73.996094 L 245.648438 79.789062 " fill-opacity="1" fill-rule="nonzero"/><path fill="#364852" d="M 264.09375 90.449219 L 250.152344 82.394531 L 250.152344 76.597656 L 264.09375 84.648438 L 264.09375 90.449219 " fill-opacity="1" fill-rule="nonzero"/><path fill="#364852" d="M 301.933594 121.761719 L 215.539062 71.847656 L 215.539062 68.957031 L 301.933594 118.871094 L 301.933594 121.761719 " fill-opacity="1" fill-rule="nonzero"/><path fill="#364852" d="M 301.933594 128.320312 L 215.539062 78.410156 L 215.539062 75.519531 L 301.933594 125.429688 L 301.933594 128.320312 " fill-opacity="1" fill-rule="nonzero"/><path fill="#364852" d="M 277.714844 120.890625 L 215.539062 84.972656 L 215.539062 82.082031 L 277.714844 118 L 277.714844 120.890625 " fill-opacity="1" fill-rule="nonzero"/><path fill="#364852" d="M 256.648438 151.433594 L 170.25 101.519531 L 170.25 98.628906 L 256.648438 148.542969 L 256.648438 151.433594 " fill-opacity="1" fill-rule="nonzero"/><path fill="#364852" d="M 256.648438 157.996094 L 170.25 108.082031 L 170.25 105.195312 L 256.648438 155.105469 L 256.648438 157.996094 " fill-opacity="1" fill-rule="nonzero"/><path fill="#364852" d="M 232.425781 150.5625 L 170.25 114.644531 L 170.25 111.753906 L 232.425781 147.671875 L 232.425781 150.5625 " fill-opacity="1" fill-rule="nonzero"/><path fill="#e9ad10" d="M 197.636719 60.566406 C 197.636719 65.707031 194.03125 67.789062 189.582031 65.21875 C 185.132812 62.648438 181.527344 56.398438 181.527344 51.257812 C 181.527344 46.121094 185.132812 44.035156 189.582031 46.605469 C 194.03125 49.175781 197.636719 55.425781 197.636719 60.566406 " fill-opacity="1" fill-rule="nonzero"/><path fill="#82c3ed" d="M 185.433594 95.640625 L 170.25 86.871094 L 170.25 69.332031 L 185.433594 78.101562 L 185.433594 95.640625 " fill-opacity="1" fill-rule="nonzero"/><path fill="#b2aede" d="M 205.226562 107.078125 L 190.050781 98.308594 L 190.050781 80.769531 L 205.226562 89.539062 L 205.226562 107.078125 " fill-opacity="1" fill-rule="nonzero"/><path fill="#2366b6" d="M 225.023438 118.515625 L 209.84375 109.742188 L 209.84375 92.207031 L 225.023438 100.976562 L 225.023438 118.515625 " fill-opacity="1" fill-rule="nonzero"/><path fill="#e9ad10" d="M 244.820312 129.949219 L 229.640625 121.179688 L 229.640625 103.644531 L 244.820312 112.410156 L 244.820312 129.949219 " fill-opacity="1" fill-rule="nonzero"/><path fill="#e0183d" d="M 264.613281 141.386719 L 249.4375 132.617188 L 249.4375 115.078125 L 264.613281 123.847656 L 264.613281 141.386719 " fill-opacity="1" fill-rule="nonzero"/><path fill="#b2aede" d="M 284.410156 152.824219 L 269.230469 144.054688 L 269.230469 126.515625 L 284.410156 135.285156 L 284.410156 152.824219 " fill-opacity="1" fill-rule="nonzero"/><path fill="#b2aede" d="M 298 151.921875 L 293.136719 154.699219 L 291.898438 152.550781 L 295.492188 150.476562 L 291.898438 144.242188 L 293.136719 143.492188 L 298 151.921875 " fill-opacity="1" fill-rule="nonzero"/><path fill="#dddaf1" d="M 298 188.449219 L 269.230469 171.828125 L 269.230469 155.8125 L 298 172.4375 L 298 188.449219 " fill-opacity="1" fill-rule="nonzero"/><path fill="#879094" d="M 200.371094 146.359375 L 166.160156 126.589844 L 200.371094 146.359375 M 296.347656 90.914062 L 249.296875 63.730469 L 296.351562 90.914062 " fill-opacity="1" fill-rule="nonzero"/><path fill="#ffffff" d="M 200.371094 146.359375 L 166.160156 126.589844 L 166.160156 111.757812 L 171.386719 108.738281 L 218.4375 135.921875 L 215.261719 137.757812 L 170.25 111.753906 L 170.25 114.644531 L 212.757812 139.203125 L 200.371094 146.359375 M 220.9375 134.476562 L 173.886719 107.292969 L 177.066406 105.457031 L 224.117188 132.640625 L 220.9375 134.476562 M 226.621094 131.195312 L 179.566406 104.011719 L 190.050781 97.957031 L 190.050781 98.308594 L 205.226562 107.078125 L 205.226562 89.539062 L 204.925781 89.363281 L 215.539062 83.230469 L 215.539062 84.972656 L 261.085938 111.28125 L 251.976562 116.546875 L 249.4375 115.078125 L 249.4375 118.011719 L 244.820312 120.679688 L 244.820312 112.410156 L 229.640625 103.644531 L 229.640625 121.179688 L 236.796875 125.316406 L 226.621094 131.195312 M 209.84375 92.207031 L 209.84375 109.742188 L 225.023438 118.515625 L 225.023438 100.976562 L 209.84375 92.207031 M 263.585938 109.835938 L 216.535156 82.65625 L 219.714844 80.820312 L 266.761719 108.003906 L 263.585938 109.835938 M 269.265625 106.558594 L 222.214844 79.375 L 225.390625 77.539062 L 272.441406 104.722656 L 269.265625 106.558594 M 274.945312 103.277344 L 227.894531 76.097656 L 233.570312 72.8125 L 245.648438 79.789062 L 245.648438 73.996094 L 238.589844 69.914062 L 244.992188 66.21875 L 292.042969 93.398438 L 274.945312 103.277344 M 250.152344 76.597656 L 250.152344 82.394531 L 264.09375 90.449219 L 264.09375 84.648438 L 250.152344 76.597656 M 296.34375 90.914062 L 249.296875 63.730469 L 296.347656 90.914062 L 296.34375 90.914062 " fill-opacity="1" fill-rule="nonzero"/><path fill="#b2dff6" d="M 292.042969 93.398438 L 244.992188 66.21875 L 249.296875 63.730469 L 296.34375 90.914062 L 292.042969 93.398438 " fill-opacity="1" fill-rule="nonzero"/><path fill="#879094" d="M 245.648438 79.789062 L 233.570312 72.8125 L 238.589844 69.914062 L 245.648438 73.996094 L 245.648438 79.789062 " fill-opacity="1" fill-rule="nonzero"/><path fill="#879094" d="M 264.09375 90.449219 L 250.152344 82.394531 L 250.152344 76.597656 L 264.09375 84.648438 L 264.09375 90.449219 " fill-opacity="1" fill-rule="nonzero"/><path fill="#879094" d="M 272.441406 104.722656 L 225.390625 77.539062 L 227.894531 76.097656 L 274.945312 103.277344 L 272.441406 104.722656 " fill-opacity="1" fill-rule="nonzero"/><path fill="#879094" d="M 266.761719 108.003906 L 219.714844 80.820312 L 222.214844 79.375 L 269.265625 106.558594 L 266.761719 108.003906 " fill-opacity="1" fill-rule="nonzero"/><path fill="#879094" d="M 261.085938 111.28125 L 215.539062 84.972656 L 215.539062 83.230469 L 216.535156 82.65625 L 263.585938 109.835938 L 261.085938 111.28125 " fill-opacity="1" fill-rule="nonzero"/><path fill="#879094" d="M 224.117188 132.640625 L 177.066406 105.457031 L 179.566406 104.011719 L 226.621094 131.195312 L 224.117188 132.640625 " fill-opacity="1" fill-rule="nonzero"/><path fill="#879094" d="M 218.4375 135.921875 L 171.386719 108.738281 L 173.886719 107.292969 L 220.9375 134.476562 L 218.4375 135.921875 " fill-opacity="1" fill-rule="nonzero"/><path fill="#879094" d="M 212.757812 139.203125 L 170.25 114.644531 L 170.25 111.753906 L 215.261719 137.757812 L 212.757812 139.203125 " fill-opacity="1" fill-rule="nonzero"/><path fill="#d3d1ed" d="M 205.226562 107.078125 L 190.050781 98.308594 L 190.050781 97.957031 L 204.925781 89.363281 L 205.226562 89.539062 L 205.226562 107.078125 " fill-opacity="1" fill-rule="nonzero"/><path fill="#8cadd6" d="M 225.023438 118.515625 L 209.84375 109.742188 L 209.84375 92.207031 L 225.023438 100.976562 L 225.023438 118.515625 " fill-opacity="1" fill-rule="nonzero"/><path fill="#eecd4f" d="M 236.796875 125.316406 L 229.640625 121.179688 L 229.640625 103.644531 L 244.820312 112.410156 L 244.820312 120.679688 L 236.796875 125.316406 " fill-opacity="1" fill-rule="nonzero"/><path fill="#eb7f8f" d="M 249.4375 118.011719 L 249.4375 115.078125 L 251.976562 116.546875 L 249.4375 118.011719 " fill-opacity="1" fill-rule="nonzero"/><path fill="#ffffff" d="M 237.996094 168.09375 L 230.683594 163.867188 L 225.15625 160.675781 L 243.222656 150.238281 L 256.0625 157.65625 L 237.996094 168.09375 M 256.648438 157.316406 L 256.648438 155.105469 L 245.726562 148.792969 L 248.902344 146.960938 L 256.648438 151.433594 L 256.648438 148.542969 L 251.402344 145.515625 L 261.582031 139.632812 L 264.613281 141.386719 L 264.613281 137.882812 L 269.230469 135.214844 L 269.230469 144.054688 L 274.417969 147.050781 L 256.648438 157.316406 M 284.410156 141.28125 L 284.410156 135.285156 L 276.761719 130.867188 L 291.546875 122.320312 L 301.933594 128.320312 L 301.933594 125.429688 L 294.050781 120.878906 L 297.226562 119.039062 L 301.933594 121.761719 L 301.933594 118.871094 L 299.730469 117.59375 L 307.253906 113.25 L 307.253906 128.085938 L 284.410156 141.28125 " fill-opacity="1" fill-rule="nonzero"/><path fill="#879094" d="M 301.933594 121.761719 L 297.226562 119.039062 L 299.730469 117.59375 L 301.933594 118.871094 L 301.933594 121.761719 " fill-opacity="1" fill-rule="nonzero"/><path fill="#879094" d="M 301.933594 128.320312 L 291.546875 122.320312 L 294.050781 120.878906 L 301.933594 125.429688 L 301.933594 128.320312 " fill-opacity="1" fill-rule="nonzero"/><path fill="#879094" d="M 256.648438 151.433594 L 248.902344 146.960938 L 251.402344 145.515625 L 256.648438 148.542969 L 256.648438 151.433594 " fill-opacity="1" fill-rule="nonzero"/><path fill="#879094" d="M 256.0625 157.65625 L 243.222656 150.238281 L 245.726562 148.792969 L 256.648438 155.105469 L 256.648438 157.316406 L 256.0625 157.65625 " fill-opacity="1" fill-rule="nonzero"/><path fill="#eb7f8f" d="M 264.613281 141.386719 L 261.582031 139.632812 L 264.613281 137.882812 L 264.613281 141.386719 " fill-opacity="1" fill-rule="nonzero"/><path fill="#d3d1ed" d="M 274.417969 147.050781 L 269.230469 144.054688 L 269.230469 135.214844 L 276.761719 130.867188 L 284.410156 135.285156 L 284.410156 141.28125 L 274.417969 147.050781 " fill-opacity="1" fill-rule="nonzero"/><path fill="#82c3ed" d="M 287.71875 151.84375 L 235.378906 121.605469 L 232.875 123.050781 L 285.214844 153.289062 L 287.71875 151.84375 " fill-opacity="1" fill-rule="nonzero"/><path fill="#2366b6" d="M 287.71875 186.347656 L 287.71875 151.855469 L 285.214844 153.300781 L 285.214844 187.792969 L 287.71875 186.347656 " fill-opacity="1" fill-rule="nonzero"/><path fill="#4d92d5" d="M 285.214844 187.792969 L 232.875 157.554688 L 232.875 123.0625 L 285.214844 153.300781 L 285.214844 187.792969 " fill-opacity="1" fill-rule="nonzero"/><path fill="#e9ad10" d="M 249.433594 161.804688 L 258.148438 154.242188 L 263.542969 160.253906 L 270.507812 155.261719 L 282.414062 180.859375 L 249.433594 161.804688 " fill-opacity="1" fill-rule="nonzero"/><path fill="#ffffff" d="M 245.808594 138.476562 L 237.40625 133.625 L 237.40625 130.996094 L 245.808594 135.851562 L 245.808594 138.476562 " fill-opacity="1" fill-rule="nonzero"/><path fill="#ffffff" d="M 245.808594 145.554688 L 237.40625 140.703125 L 237.40625 138.074219 L 245.808594 142.929688 L 245.808594 145.554688 " fill-opacity="1" fill-rule="nonzero"/><path fill="#ffffff" d="M 245.808594 152.632812 L 237.40625 147.78125 L 237.40625 145.148438 L 245.808594 150.003906 L 245.808594 152.632812 " fill-opacity="1" fill-rule="nonzero"/><path fill="#ffffff" d="M 245.808594 159.710938 L 237.40625 154.859375 L 237.40625 152.226562 L 245.808594 157.082031 L 245.808594 159.710938 " fill-opacity="1" fill-rule="nonzero"/><path fill="#e0183d" d="M 249.433594 161.804688 L 258.082031 159.726562 L 264.707031 167.089844 L 271.738281 163.101562 L 276.738281 169.1875 L 282.414062 180.859375 L 249.433594 161.804688 " fill-opacity="1" fill-rule="nonzero"/><path fill="#b2aede" d="M 204.753906 122.214844 L 113.152344 69.296875 L 113.152344 53.359375 L 204.753906 106.28125 L 204.753906 122.214844 " fill-opacity="1" fill-rule="nonzero"/><path fill="#4d92d5" d="M 126.195312 68.863281 C 126.195312 71.597656 124.28125 72.703125 121.914062 71.335938 C 119.550781 69.972656 117.636719 66.648438 117.636719 63.917969 C 117.636719 61.1875 119.550781 60.078125 121.914062 61.445312 C 124.28125 62.8125 126.195312 66.132812 126.195312 68.863281 " fill-opacity="1" fill-rule="nonzero"/><path fill="#364852" d="M 129.648438 72.238281 L 137.765625 76.925781 L 137.765625 74.167969 L 129.648438 69.480469 L 129.648438 72.238281 " fill-opacity="1" fill-rule="nonzero"/><path fill="#364852" d="M 141.21875 78.921875 L 153.515625 86.027344 L 153.515625 83.269531 L 141.21875 76.164062 L 141.21875 78.921875 " fill-opacity="1" fill-rule="nonzero"/><path fill="#e0183d" d="M 198.445312 113.109375 L 185.070312 105.378906 C 184.03125 104.78125 183.195312 103.175781 183.195312 101.792969 C 183.195312 100.410156 184.03125 99.777344 185.070312 100.371094 L 198.445312 108.101562 C 199.480469 108.699219 200.320312 110.308594 200.320312 111.6875 C 200.320312 113.070312 199.480469 113.707031 198.445312 113.109375 " fill-opacity="1" fill-rule="nonzero"/><path fill="#e9ad10" d="M 162.824219 90.023438 C 162.824219 90.835938 162.257812 91.164062 161.558594 90.757812 C 160.855469 90.355469 160.289062 89.367188 160.289062 88.558594 C 160.289062 87.75 160.855469 87.421875 161.558594 87.828125 C 162.257812 88.230469 162.824219 89.214844 162.824219 90.023438 " fill-opacity="1" fill-rule="nonzero"/><path fill="#e9ad10" d="M 167.183594 92.542969 C 167.183594 93.355469 166.613281 93.683594 165.914062 93.277344 C 165.210938 92.871094 164.644531 91.886719 164.644531 91.074219 C 164.644531 90.269531 165.210938 89.941406 165.914062 90.34375 C 166.613281 90.75 167.183594 91.734375 167.183594 92.542969 " fill-opacity="1" fill-rule="nonzero"/><path fill="#364852" d="M 171.539062 95.0625 C 171.539062 95.871094 170.972656 96.199219 170.269531 95.792969 C 169.570312 95.390625 169 94.40625 169 93.59375 C 169 92.785156 169.570312 92.457031 170.269531 92.859375 C 170.972656 93.265625 171.539062 94.25 171.539062 95.0625 " fill-opacity="1" fill-rule="nonzero"/><path fill="#dddaf1" d="M 207.578125 104.636719 L 115.976562 51.71875 L 113.152344 53.347656 L 204.753906 106.269531 L 207.578125 104.636719 " fill-opacity="1" fill-rule="nonzero"/><path fill="#8782bd" d="M 207.578125 120.585938 L 207.578125 104.648438 L 204.753906 106.28125 L 204.753906 122.214844 L 207.578125 120.585938 " fill-opacity="1" fill-rule="nonzero"/><path fill="#b2aede" d="M 204.753906 144.648438 L 113.152344 91.726562 L 113.152344 75.792969 L 204.753906 128.714844 L 204.753906 144.648438 " fill-opacity="1" fill-rule="nonzero"/><path fill="#e9ad10" d="M 126.195312 91.296875 C 126.195312 94.027344 124.28125 95.132812 121.914062 93.769531 C 119.550781 92.402344 117.636719 89.082031 117.636719 86.347656 C 117.636719 83.617188 119.550781 82.511719 121.914062 83.878906 C 124.28125 85.242188 126.195312 88.5625 126.195312 91.296875 " fill-opacity="1" fill-rule="nonzero"/><path fill="#364852" d="M 129.648438 94.671875 L 137.765625 99.359375 L 137.765625 96.601562 L 129.648438 91.910156 L 129.648438 94.671875 " fill-opacity="1" fill-rule="nonzero"/><path fill="#364852" d="M 141.21875 101.351562 L 153.515625 108.457031 L 153.515625 105.699219 L 141.21875 98.59375 L 141.21875 101.351562 " fill-opacity="1" fill-rule="nonzero"/><path fill="#e0183d" d="M 198.445312 135.539062 L 185.070312 127.8125 C 184.03125 127.214844 183.195312 125.605469 183.195312 124.226562 C 183.195312 122.839844 184.03125 122.207031 185.070312 122.804688 L 198.445312 130.535156 C 199.480469 131.128906 200.320312 132.738281 200.320312 134.121094 C 200.320312 135.503906 199.480469 136.136719 198.445312 135.539062 " fill-opacity="1" fill-rule="nonzero"/><path fill="#e9ad10" d="M 162.824219 112.457031 C 162.824219 113.269531 162.257812 113.597656 161.558594 113.191406 C 160.855469 112.785156 160.289062 111.800781 160.289062 110.992188 C 160.289062 110.183594 160.855469 109.855469 161.558594 110.257812 C 162.257812 110.664062 162.824219 111.648438 162.824219 112.457031 " fill-opacity="1" fill-rule="nonzero"/><path fill="#e9ad10" d="M 167.183594 114.976562 C 167.183594 115.785156 166.613281 116.113281 165.914062 115.707031 C 165.210938 115.304688 164.644531 114.320312 164.644531 113.507812 C 164.644531 112.699219 165.210938 112.371094 165.914062 112.773438 C 166.613281 113.179688 167.183594 114.164062 167.183594 114.976562 " fill-opacity="1" fill-rule="nonzero"/><path fill="#e9ad10" d="M 171.539062 117.492188 C 171.539062 118.300781 170.972656 118.628906 170.269531 118.222656 C 169.570312 117.820312 169 116.835938 169 116.027344 C 169 115.214844 169.570312 114.886719 170.269531 115.292969 C 170.972656 115.699219 171.539062 116.683594 171.539062 117.492188 " fill-opacity="1" fill-rule="nonzero"/><path fill="#dddaf1" d="M 207.578125 127.066406 L 115.976562 74.148438 L 113.152344 75.78125 L 204.753906 128.703125 L 207.578125 127.066406 " fill-opacity="1" fill-rule="nonzero"/><path fill="#8782bd" d="M 207.578125 143.015625 L 207.578125 127.082031 L 204.753906 128.714844 L 204.753906 144.648438 L 207.578125 143.015625 " fill-opacity="1" fill-rule="nonzero"/><path fill="#b2aede" d="M 204.753906 167.078125 L 113.152344 114.15625 L 113.152344 98.222656 L 204.753906 151.144531 L 204.753906 167.078125 " fill-opacity="1" fill-rule="nonzero"/><path fill="#e0183d" d="M 126.195312 113.726562 C 126.195312 116.457031 124.28125 117.566406 121.914062 116.199219 C 119.550781 114.832031 117.636719 111.511719 117.636719 108.78125 C 117.636719 106.046875 119.550781 104.945312 121.914062 106.308594 C 124.28125 107.671875 126.195312 110.996094 126.195312 113.726562 " fill-opacity="1" fill-rule="nonzero"/><path fill="#364852" d="M 129.648438 117.101562 L 137.765625 121.789062 L 137.765625 119.03125 L 129.648438 114.34375 L 129.648438 117.101562 " fill-opacity="1" fill-rule="nonzero"/><path fill="#364852" d="M 141.21875 123.785156 L 153.515625 130.886719 L 153.515625 128.128906 L 141.21875 121.027344 L 141.21875 123.785156 " fill-opacity="1" fill-rule="nonzero"/><path fill="#e0183d" d="M 198.445312 157.972656 L 185.070312 150.246094 C 184.03125 149.644531 183.195312 148.039062 183.195312 146.65625 C 183.195312 145.273438 184.03125 144.636719 185.070312 145.238281 L 198.445312 152.964844 C 199.480469 153.5625 200.320312 155.167969 200.320312 156.550781 C 200.320312 157.933594 199.480469 158.570312 198.445312 157.972656 " fill-opacity="1" fill-rule="nonzero"/><path fill="#e9ad10" d="M 162.824219 134.890625 C 162.824219 135.699219 162.257812 136.027344 161.558594 135.621094 C 160.855469 135.21875 160.289062 134.234375 160.289062 133.421875 C 160.289062 132.613281 160.855469 132.285156 161.558594 132.6875 C 162.257812 133.09375 162.824219 134.078125 162.824219 134.890625 " fill-opacity="1" fill-rule="nonzero"/><path fill="#e9ad10" d="M 167.183594 137.40625 C 167.183594 138.214844 166.613281 138.542969 165.914062 138.140625 C 165.210938 137.734375 164.644531 136.75 164.644531 135.941406 C 164.644531 135.128906 165.210938 134.800781 165.914062 135.207031 C 166.613281 135.613281 167.183594 136.597656 167.183594 137.40625 " fill-opacity="1" fill-rule="nonzero"/><path fill="#364852" d="M 171.539062 139.921875 C 171.539062 140.730469 170.972656 141.058594 170.269531 140.65625 C 169.570312 140.25 169 139.265625 169 138.457031 C 169 137.648438 169.570312 137.320312 170.269531 137.722656 C 170.972656 138.128906 171.539062 139.113281 171.539062 139.921875 " fill-opacity="1" fill-rule="nonzero"/><path fill="#dddaf1" d="M 207.578125 149.5 L 115.976562 96.578125 L 113.152344 98.210938 L 204.753906 151.132812 L 207.578125 149.5 " fill-opacity="1" fill-rule="nonzero"/><path fill="#8782bd" d="M 207.578125 165.445312 L 207.578125 149.511719 L 204.753906 151.144531 L 204.753906 167.078125 L 207.578125 165.445312 " fill-opacity="1" fill-rule="nonzero"/></svg>