<svg xmlns="http://www.w3.org/2000/svg" xmlns:xlink="http://www.w3.org/1999/xlink" width="516" zoomAndPan="magnify" viewBox="0 0 386.88 284.999983" height="380" preserveAspectRatio="xMidYMid meet" version="1.0"><defs><clipPath id="29f4a2e4ce"><path d="M 0 0.0429688 L 386.761719 0.0429688 L 386.761719 284.953125 L 0 284.953125 Z M 0 0.0429688 " clip-rule="nonzero"/></clipPath><clipPath id="9c1df7b3a5"><path d="M 36.351562 37 L 308 37 L 308 273 L 36.351562 273 Z M 36.351562 37 " clip-rule="nonzero"/></clipPath><clipPath id="610eb12e43"><path d="M 36.351562 110 L 81 110 L 81 161 L 36.351562 161 Z M 36.351562 110 " clip-rule="nonzero"/></clipPath><clipPath id="33e48cdaf9"><path d="M 317 3.828125 L 349.75 3.828125 L 349.75 37 L 317 37 Z M 317 3.828125 " clip-rule="nonzero"/></clipPath><clipPath id="63a15a87df"><path d="M 213 232 L 262 232 L 262 280.492188 L 213 280.492188 Z M 213 232 " clip-rule="nonzero"/></clipPath></defs><g clip-path="url(#29f4a2e4ce)"><path fill="#ffffff" d="M 0 0.0429688 L 386.878906 0.0429688 L 386.878906 284.957031 L 0 284.957031 Z M 0 0.0429688 " fill-opacity="1" fill-rule="nonzero"/><path fill="#5e17eb" d="M 0 0.0429688 L 386.878906 0.0429688 L 386.878906 284.957031 L 0 284.957031 Z M 0 0.0429688 " fill-opacity="1" fill-rule="nonzero"/></g><path fill="#d4e7ff" d="M 324.082031 161.082031 C 320.878906 230.28125 259.296875 249.984375 182.589844 251.460938 C 65.617188 253.71875 52.003906 216.570312 52.003906 147.296875 C 52.003906 78.019531 77.503906 6.496094 145.113281 11.765625 C 177.234375 14.269531 213.695312 67.492188 240.992188 85.152344 C 278.707031 109.550781 326.492188 109.097656 324.082031 161.082031 Z M 324.082031 161.082031 " fill-opacity="1" fill-rule="nonzero"/><g clip-path="url(#9c1df7b3a5)"><path stroke-linecap="butt" transform="matrix(0.510421, 0, 0, 0.510451, 36.350781, 3.829849)" fill="none" stroke-linejoin="miter" d="M 27.146692 364.839765 C 27.146692 364.839765 74.8784 344.017166 96.819528 276.146669 C 118.768308 208.260867 158.540905 151.103945 233.930526 147.270016 C 309.30484 143.428434 390.839813 148.150059 417.785997 107.698661 C 444.716875 67.247264 387.151071 66.321305 386.339854 137.298738 C 385.53629 208.276172 509.591285 338.446108 516.081022 439.521034 C 522.563106 540.595961 438.801112 520.538618 334.735732 479.903559 C 230.670351 439.276153 122.028482 519.67388 54.322465 489.606997 C -13.391205 459.517157 -10.460109 395.212749 27.146692 364.839765 Z M 27.146692 364.839765 " stroke="#4570b4" stroke-width="1" stroke-opacity="0.4196" stroke-miterlimit="10"/></g><path fill="#4570b4" d="M 55.378906 149.910156 C 63.09375 149.910156 69.347656 143.65625 69.347656 135.941406 C 69.347656 128.230469 63.09375 121.976562 55.378906 121.976562 C 47.660156 121.976562 41.40625 128.230469 41.40625 135.941406 C 41.40625 143.65625 47.660156 149.910156 55.378906 149.910156 Z M 55.378906 149.910156 " fill-opacity="0.4196" fill-rule="nonzero"/><g clip-path="url(#610eb12e43)"><path stroke-linecap="butt" transform="matrix(0.510421, 0, 0, 0.510451, 36.350781, 3.829849)" fill="none" stroke-linejoin="miter" d="M 61.975457 283.508426 C 75.620741 269.871575 75.620741 247.763348 61.975457 234.126498 C 48.337825 220.489648 26.213027 220.489648 12.575396 234.126498 C -1.069889 247.763348 -1.069889 269.871575 12.575396 283.508426 C 26.213027 297.145276 48.337825 297.145276 61.975457 283.508426 Z M 61.975457 283.508426 " stroke="#4570b4" stroke-width="1" stroke-opacity="0.4196" stroke-miterlimit="10"/></g><path fill="#4570b4" d="M 320.734375 161.082031 C 329.734375 161.082031 337.03125 153.789062 337.03125 144.789062 C 337.03125 135.792969 329.734375 128.5 320.734375 128.5 C 311.734375 128.5 304.4375 135.792969 304.4375 144.789062 C 304.4375 153.789062 311.734375 161.082031 320.734375 161.082031 Z M 320.734375 161.082031 " fill-opacity="0.4196" fill-rule="nonzero"/><path stroke-linecap="butt" transform="matrix(0.510421, 0, 0, 0.510451, 36.350781, 3.829849)" fill="none" stroke-linejoin="miter" d="M 334.184716 190.063095 L 325.567448 203.753513 L 343.919322 203.753513 Z M 334.184716 190.063095 " stroke="#4570b4" stroke-width="1" stroke-opacity="0.4196" stroke-miterlimit="10"/><path fill="#4570b4" d="M 144.890625 35.839844 L 139.007812 45.164062 L 151.523438 45.164062 Z M 144.890625 35.839844 " fill-opacity="0.4196" fill-rule="nonzero"/><path fill="#4570b4" d="M 188.933594 54.679688 C 198.316406 54.679688 205.925781 47.074219 205.925781 37.691406 C 205.925781 28.3125 198.316406 20.707031 188.933594 20.707031 C 179.546875 20.707031 171.941406 28.3125 171.941406 37.691406 C 171.941406 47.074219 179.546875 54.679688 188.933594 54.679688 Z M 188.933594 54.679688 " fill-opacity="0.4196" fill-rule="nonzero"/><path fill="#ffffff" d="M 188.59375 35.59375 L 187.636719 33.769531 C 187.019531 32.59375 187.476562 31.148438 188.648438 30.53125 C 189.445312 30.113281 189.757812 29.128906 189.339844 28.324219 L 187.910156 25.585938 C 187.492188 24.789062 186.507812 24.480469 185.703125 24.898438 L 184.457031 25.550781 C 183.285156 26.167969 182.328125 27.121094 181.71875 28.292969 L 181.355469 28.996094 C 180.726562 30.207031 180.734375 31.648438 181.363281 32.855469 L 184.035156 37.96875 L 185.816406 41.378906 L 188.492188 46.488281 C 189.121094 47.699219 190.300781 48.523438 191.65625 48.699219 L 192.4375 48.800781 C 193.75 48.972656 195.082031 48.734375 196.253906 48.117188 L 197.5 47.46875 C 198.296875 47.046875 198.609375 46.0625 198.195312 45.257812 L 196.769531 42.523438 C 196.347656 41.726562 195.363281 41.414062 194.558594 41.828125 C 193.386719 42.441406 191.9375 41.984375 191.324219 40.8125 L 190.367188 38.988281 Z M 188.59375 35.59375 " fill-opacity="1" fill-rule="nonzero"/><path stroke-linecap="butt" transform="matrix(0.510421, 0, 0, 0.510451, 36.350781, 3.829849)" fill="none" stroke-linejoin="miter" d="M 542.430272 441.69436 C 542.430272 445.490026 539.346116 448.581658 535.527273 448.581658 C 531.73139 448.581658 528.631928 445.505331 528.631928 441.69436 C 528.631928 437.875735 531.716084 434.799409 535.527273 434.799409 C 539.346116 434.814714 542.430272 437.89104 542.430272 441.69436 Z M 542.430272 441.69436 " stroke="#4570b4" stroke-width="1" stroke-opacity="0.4196" stroke-miterlimit="10"/><path fill="#ffffff" d="M 102.910156 43.289062 C 106.503906 43.289062 109.417969 40.378906 109.417969 36.789062 C 109.417969 33.195312 106.503906 30.285156 102.910156 30.285156 C 99.320312 30.285156 96.40625 33.195312 96.40625 36.789062 C 96.40625 40.378906 99.320312 43.289062 102.910156 43.289062 Z M 102.910156 43.289062 " fill-opacity="0.4196" fill-rule="nonzero"/><path stroke-linecap="butt" transform="matrix(0.510421, 0, 0, 0.510451, 36.350781, 3.829849)" fill="none" stroke-linejoin="miter" d="M 478.236978 254.275671 C 485.270077 254.275671 490.979209 248.574519 490.979209 241.541822 C 490.979209 234.501473 485.270077 228.800321 478.236978 228.800321 C 471.196226 228.800321 465.494747 234.501473 465.494747 241.541822 C 465.494747 248.574519 471.196226 254.275671 478.236978 254.275671 Z M 478.236978 254.275671 " stroke="#4570b4" stroke-width="1" stroke-opacity="0.4196" stroke-miterlimit="10"/><path fill="#4570b4" d="M 75.691406 170.660156 C 79.191406 170.660156 82.03125 167.824219 82.03125 164.324219 C 82.03125 160.824219 79.191406 157.988281 75.691406 157.988281 C 72.191406 157.988281 69.355469 160.824219 69.355469 164.324219 C 69.355469 167.824219 72.191406 170.660156 75.691406 170.660156 Z M 75.691406 170.660156 " fill-opacity="0.4196" fill-rule="nonzero"/><path stroke-linecap="butt" transform="matrix(0.510421, 0, 0, 0.510451, 36.350781, 3.829849)" fill="none" stroke-linejoin="miter" d="M 557.154628 298.163066 C 569.322884 298.163066 579.179938 288.306577 579.179938 276.146669 C 579.179938 263.994414 569.322884 254.137925 557.154628 254.137925 C 544.994024 254.137925 535.136971 263.994414 535.136971 276.146669 C 535.136971 288.306577 544.994024 298.163066 557.154628 298.163066 Z M 557.154628 298.163066 " stroke="#ffffff" stroke-width="1" stroke-opacity="0.4196" stroke-miterlimit="10"/><path fill="#4570b4" d="M 311.179688 38.34375 L 233.28125 38.34375 C 229.949219 38.34375 227.253906 41.042969 227.253906 44.367188 L 227.253906 91.40625 C 227.253906 94.738281 229.957031 97.433594 233.28125 97.433594 L 282.964844 97.433594 L 282.964844 109.292969 C 282.964844 111.273438 285.28125 112.355469 286.804688 111.078125 L 303.019531 97.433594 L 311.179688 97.433594 C 314.511719 97.433594 317.207031 94.730469 317.207031 91.40625 L 317.207031 44.375 C 317.207031 41.042969 314.511719 38.34375 311.179688 38.34375 Z M 311.179688 38.34375 " fill-opacity="0.4196" fill-rule="nonzero"/><path fill="#68a8de" d="M 330.910156 44.214844 C 330.910156 51.246094 328.890625 57.796875 325.40625 63.300781 C 324.855469 64.183594 324.261719 65.046875 323.632812 65.871094 C 317.265625 74.226562 307.308594 79.605469 296.117188 79.605469 C 290.375 79.605469 284.957031 78.195312 280.183594 75.683594 C 268.976562 69.804688 261.324219 57.914062 261.324219 44.214844 C 261.324219 42.617188 261.425781 41.039062 261.632812 39.488281 C 263.902344 22.175781 278.480469 8.816406 296.117188 8.816406 C 315.332031 8.816406 330.910156 24.667969 330.910156 44.214844 Z M 330.910156 44.214844 " fill-opacity="1" fill-rule="nonzero"/><path fill="#c6606c" d="M 323.632812 65.863281 C 317.265625 74.21875 307.304688 79.597656 296.117188 79.597656 C 290.375 79.597656 284.957031 78.1875 280.183594 75.675781 C 280.835938 74.046875 282.832031 69.722656 286.375 67.304688 C 290.792969 64.277344 304.222656 62.460938 313.535156 63.257812 C 319.03125 63.722656 322.066406 64.945312 323.632812 65.863281 Z M 323.632812 65.863281 " fill-opacity="1" fill-rule="nonzero"/><path fill="#ffffff" d="M 280.449219 26.261719 L 280.8125 43.542969 C 280.8125 43.542969 281.363281 61.203125 295.734375 60.890625 C 310.109375 60.578125 313.144531 38.765625 313.144531 38.765625 L 310.882812 25.527344 C 310.882812 25.527344 294.082031 14.320312 280.449219 26.261719 Z M 280.449219 26.261719 " fill-opacity="1" fill-rule="nonzero"/><path fill="#ffffff" d="M 295.835938 56.734375 C 295.835938 56.734375 296.898438 63.417969 295.292969 65.605469 C 293.683594 67.789062 298.492188 75.378906 298.492188 75.378906 L 309.625 65.167969 C 309.625 65.167969 308.886719 57.683594 309.089844 51.128906 Z M 295.835938 56.734375 " fill-opacity="1" fill-rule="nonzero"/><path fill="#00496a" d="M 280.53125 30.226562 C 280.53125 30.226562 284.667969 31.546875 289.09375 31.15625 C 293.515625 30.761719 295.066406 28.980469 295.066406 28.980469 C 295.066406 28.980469 296.542969 29.605469 298.949219 29.605469 C 301.355469 29.605469 303.144531 28.4375 303.144531 28.4375 C 303.144531 28.4375 301.511719 31.234375 302.207031 34.804688 C 302.902344 38.371094 305.234375 39.300781 305.234375 39.300781 C 305.234375 39.300781 306.714844 35.730469 309.269531 35.730469 C 311.828125 35.730469 312.761719 38.445312 312.101562 42.015625 C 311.441406 45.585938 307.328125 46.4375 307.328125 46.4375 L 309.082031 51.136719 C 309.082031 51.136719 315.707031 44.035156 316.484375 36.199219 C 317.257812 28.367188 313.304688 26.035156 313.304688 26.035156 C 313.304688 26.035156 313.636719 20.214844 305.867188 18.203125 C 298.09375 16.183594 292.972656 16.339844 287.152344 19.679688 C 287.152344 19.679688 282.261719 15.957031 278.148438 18.203125 C 274.035156 20.453125 275.199219 25.261719 277.214844 26.5 C 277.214844 26.5 273.257812 27.503906 274.105469 32.390625 C 274.960938 37.28125 280.660156 36.894531 280.660156 36.894531 Z M 280.53125 30.226562 " fill-opacity="1" fill-rule="nonzero"/><path fill="#d9d9d9" d="M 295.734375 60.890625 C 295.734375 60.890625 306.183594 58.125 307.210938 51.136719 C 307.210938 51.136719 309.804688 61.265625 295.734375 64.707031 C 295.734375 64.707031 296.152344 61.695312 295.734375 60.890625 Z M 295.734375 60.890625 " fill-opacity="1" fill-rule="nonzero"/><g clip-path="url(#33e48cdaf9)"><path fill="#4570b4" d="M 349.527344 22.714844 C 350.976562 13.851562 344.964844 5.492188 336.097656 4.042969 C 327.230469 2.59375 318.871094 8.605469 317.421875 17.46875 C 315.972656 26.332031 321.984375 34.691406 330.851562 36.140625 C 339.71875 37.589844 348.078125 31.578125 349.527344 22.714844 Z M 349.527344 22.714844 " fill-opacity="0.4196" fill-rule="nonzero"/></g><path fill="#ffffff" d="M 331.644531 24.472656 L 331.585938 23.71875 C 331.410156 22.148438 331.933594 20.429688 333.390625 18.6875 C 334.699219 17.144531 335.425781 16.007812 335.425781 14.699219 C 335.425781 13.214844 334.488281 12.222656 332.65625 12.191406 C 331.605469 12.191406 330.449219 12.539062 329.71875 13.097656 L 329.023438 11.265625 C 329.984375 10.570312 331.644531 10.101562 333.1875 10.101562 C 336.53125 10.101562 338.046875 12.164062 338.046875 14.378906 C 338.046875 16.355469 336.9375 17.78125 335.539062 19.441406 C 334.257812 20.953125 333.792969 22.234375 333.882812 23.71875 L 333.910156 24.472656 Z M 331.007812 28.546875 C 331.007812 27.46875 331.730469 26.714844 332.75 26.714844 C 333.773438 26.714844 334.46875 27.46875 334.46875 28.546875 C 334.46875 29.570312 333.800781 30.351562 332.722656 30.351562 C 331.703125 30.351562 331.007812 29.570312 331.007812 28.546875 Z M 331.007812 28.546875 " fill-opacity="1" fill-rule="nonzero"/><path fill="#a6d6f7" d="M 305.8125 211.304688 C 305.761719 211.472656 305.699219 211.609375 305.617188 211.71875 C 304.242188 213.710938 302.792969 215.644531 301.265625 217.511719 L 301.257812 217.511719 C 251.542969 278.582031 123.703125 278.582031 123.703125 278.582031 L 123.703125 205.695312 L 305.617188 205.695312 C 305.617188 205.695312 306.320312 209.664062 305.8125 211.304688 Z M 305.8125 211.304688 " fill-opacity="1" fill-rule="nonzero"/><path fill="#8cc6e5" d="M 305.8125 211.304688 C 305.761719 211.472656 305.699219 211.609375 305.617188 211.71875 C 304.242188 213.710938 302.792969 215.644531 301.265625 217.511719 L 301.257812 217.511719 L 123.703125 237.710938 L 123.703125 211.304688 Z M 305.8125 211.304688 " fill-opacity="1" fill-rule="nonzero"/><path fill="#ff6a76" d="M 207.207031 154.136719 L 198.40625 163.460938 C 198.40625 163.460938 196.601562 161.609375 194.445312 158.769531 C 193.414062 157.410156 192.308594 155.824219 191.285156 154.109375 C 189.945312 151.863281 188.742188 149.402344 188.054688 146.933594 C 185.738281 138.644531 186.6875 121.15625 186.6875 121.15625 C 186.6875 121.15625 190.4375 121.5625 191.71875 122.988281 C 198.941406 131.027344 207.207031 154.136719 207.207031 154.136719 Z M 207.207031 154.136719 " fill-opacity="1" fill-rule="nonzero"/><path fill="#4570b4" d="M 174.128906 184.597656 L 111.117188 184.597656 L 105.359375 136.160156 C 104.699219 130.613281 108.566406 125.566406 114.003906 124.859375 L 117.792969 124.367188 L 165.941406 118.109375 Z M 174.128906 184.597656 " fill-opacity="1" fill-rule="nonzero"/><path fill="#ff6a76" d="M 158.742188 119.71875 C 158.742188 119.71875 138.238281 126.304688 137.125 128.007812 C 136.015625 129.703125 145.640625 159.742188 145.640625 159.742188 L 143.789062 184.605469 L 185.542969 184.605469 L 187.648438 160.878906 C 187.648438 160.878906 192.117188 155.976562 192.394531 147.875 C 192.667969 139.773438 186.6875 121.15625 186.6875 121.15625 L 172.121094 119.246094 Z M 158.742188 119.71875 " fill-opacity="1" fill-rule="nonzero"/><path fill="#00496a" d="M 164.609375 73.054688 C 164.609375 73.054688 150.320312 66.90625 140.171875 81.242188 C 130.027344 95.578125 140.535156 118.109375 140.535156 118.109375 C 140.535156 118.109375 166.429688 114.730469 173.589844 114.039062 C 180.753906 113.351562 182.210938 113.351562 182.210938 113.351562 C 182.210938 113.351562 185.902344 90.710938 178.023438 82.386719 C 170.136719 74.066406 164.609375 73.054688 164.609375 73.054688 Z M 164.609375 73.054688 " fill-opacity="1" fill-rule="nonzero"/><path fill="#ffffff" d="M 169.925781 128.960938 L 157.859375 120.695312 C 157.859375 120.695312 158.851562 117.53125 158.605469 114.367188 C 158.546875 113.664062 158.433594 112.960938 158.230469 112.296875 C 158.128906 111.960938 158.003906 111.636719 157.859375 111.320312 L 169.925781 110.71875 C 169.925781 110.71875 170.007812 111.695312 170.230469 112.953125 C 170.410156 113.941406 170.679688 115.097656 171.085938 116.105469 C 171.375 116.851562 171.738281 117.507812 172.1875 117.964844 C 174.03125 119.839844 169.925781 128.960938 169.925781 128.960938 Z M 169.925781 128.960938 " fill-opacity="1" fill-rule="nonzero"/><path fill="#d9d9d9" d="M 171.085938 116.105469 C 169.535156 116.15625 162.878906 116.257812 158.605469 114.367188 C 158.546875 113.664062 158.433594 112.960938 158.230469 112.296875 C 158.230469 112.296875 166.363281 113.289062 170.230469 112.953125 C 170.410156 113.9375 170.679688 115.097656 171.085938 116.105469 Z M 171.085938 116.105469 " fill-opacity="1" fill-rule="nonzero"/><path fill="#ffffff" d="M 176.722656 78.492188 L 178.734375 95.113281 C 178.734375 95.113281 181.371094 112.246094 167.542969 113.902344 C 153.71875 115.570312 149.066406 99.589844 149.066406 99.589844 L 147.429688 81.945312 C 147.425781 81.945312 162.011719 68.90625 176.722656 78.492188 Z M 176.722656 78.492188 " fill-opacity="1" fill-rule="nonzero"/><path fill="#00496a" d="M 170.414062 79.78125 C 170.414062 79.78125 168.601562 84.226562 162.65625 87.382812 C 157.382812 90.175781 152.4375 90.953125 152.4375 90.953125 C 152.4375 90.953125 151.640625 95.636719 148.972656 98.570312 C 148.972656 98.570312 144.351562 89.808594 146.242188 82.261719 C 148.125 74.71875 157.867188 71.078125 166.421875 71.84375 C 174.96875 72.613281 178.046875 75.746094 179.183594 80.726562 C 180.320312 85.710938 178.421875 92.441406 178.421875 92.441406 C 178.421875 92.441406 176.589844 81.335938 170.414062 79.78125 Z M 170.414062 79.78125 " fill-opacity="1" fill-rule="nonzero"/><path fill="#68a8de" d="M 147.421875 94.90625 C 147.421875 94.90625 145.78125 82.261719 155.527344 75.550781 C 161.878906 71.179688 169.875 72.34375 169.875 72.34375 C 169.875 72.34375 164.835938 68.550781 154.90625 72.929688 C 144.976562 77.3125 144.46875 87.214844 145.476562 94.90625 Z M 147.421875 94.90625 " fill-opacity="1" fill-rule="nonzero"/><path fill="#375c93" d="M 125.484375 184.597656 L 111.109375 184.597656 L 105.351562 136.160156 C 104.691406 130.613281 108.558594 125.566406 114 124.859375 L 117.785156 124.363281 Z M 125.484375 184.597656 " fill-opacity="1" fill-rule="nonzero"/><path fill="#375c93" d="M 160.917969 110.863281 C 154.320312 110.863281 149.421875 106.273438 149.207031 106.0625 L 150.089844 105.097656 C 150.140625 105.148438 155.492188 110.144531 162.183594 109.480469 L 162.308594 110.789062 C 161.835938 110.839844 161.375 110.863281 160.917969 110.863281 Z M 160.917969 110.863281 " fill-opacity="1" fill-rule="nonzero"/><path fill="#68a8de" d="M 324.375 211.71875 L 126.671875 211.71875 C 121.386719 211.71875 116.34375 209.539062 112.832031 205.722656 L 101.976562 193.953125 C 97.761719 189.382812 101.113281 182.148438 107.445312 182.148438 L 300.449219 182.148438 C 307.117188 182.148438 313.527344 184.65625 318.324219 189.136719 L 329.46875 199.539062 C 334.210938 203.964844 330.96875 211.71875 324.375 211.71875 Z M 324.375 211.71875 " fill-opacity="1" fill-rule="nonzero"/><path fill="#ffffff" d="M 234.222656 123.9375 C 233.867188 124.132812 233.308594 124.460938 232.699219 124.820312 L 232.582031 124.632812 C 234.394531 123.480469 237.066406 121.679688 236.886719 121.246094 C 236.609375 120.585938 235.257812 120.933594 234.25 121.476562 C 233.671875 121.796875 232.613281 122.425781 231.589844 123.039062 L 231.519531 122.925781 C 233.316406 121.789062 236.304688 119.8125 236.109375 119.347656 C 235.835938 118.6875 234.480469 119.035156 233.472656 119.578125 C 232.835938 119.925781 231.628906 120.652344 230.519531 121.316406 L 230.433594 121.179688 C 232.214844 120.027344 234.53125 118.4375 234.367188 118.03125 C 234.089844 117.371094 232.734375 117.71875 231.730469 118.261719 C 230.367188 119 226.421875 121.441406 226.421875 121.441406 L 223.542969 122.488281 C 224.167969 121.484375 225.914062 117.753906 225.09375 117.753906 C 224.277344 117.753906 222.03125 120.355469 221.097656 123.035156 C 220.402344 125.039062 220.316406 126.828125 220.316406 127.59375 L 195.101562 159.617188 C 195.101562 159.617188 195.695312 160.550781 196.601562 161.804688 C 199.214844 165.417969 205.308594 166.214844 208.828125 163.46875 C 211.609375 161.296875 213.796875 158.429688 215.945312 155.5 C 219.996094 149.980469 226.027344 135.335938 227.441406 131.828125 L 233.148438 126.488281 C 234.714844 125.472656 236.703125 124.105469 236.558594 123.742188 C 236.3125 123.15625 235.113281 123.460938 234.222656 123.9375 Z M 234.222656 123.9375 " fill-opacity="1" fill-rule="nonzero"/><path fill="#00496a" d="M 167.898438 189.941406 C 167.898438 189.941406 170.847656 192.113281 172.011719 195.058594 C 173.179688 198.003906 165.726562 199.902344 153.289062 195.683594 C 144.242188 192.613281 159.519531 183.183594 167.898438 189.941406 Z M 167.898438 189.941406 " fill-opacity="1" fill-rule="nonzero"/><path fill="#00496a" d="M 163.21875 111.660156 L 161.554688 111.660156 C 160.960938 111.660156 160.476562 111.167969 160.476562 110.566406 L 160.476562 109.539062 C 160.476562 108.9375 160.960938 108.445312 161.554688 108.445312 L 163.21875 108.445312 C 163.8125 108.445312 164.300781 108.9375 164.300781 109.539062 L 164.300781 110.566406 C 164.292969 111.167969 163.8125 111.660156 163.21875 111.660156 Z M 163.21875 111.660156 " fill-opacity="1" fill-rule="nonzero"/><path fill="#4570b4" d="M 154.550781 98.65625 C 155.472656 103.261719 153.074219 107.648438 149.191406 108.453125 C 145.308594 109.253906 141.421875 106.171875 140.492188 101.566406 C 139.574219 96.960938 141.96875 92.574219 145.851562 91.769531 C 149.734375 90.964844 153.628906 94.050781 154.550781 98.65625 Z M 154.550781 98.65625 " fill-opacity="1" fill-rule="nonzero"/><path fill="#68a8de" d="M 150.640625 99.464844 C 151.183594 102.179688 149.769531 104.773438 147.480469 105.242188 C 145.191406 105.714844 142.898438 103.898438 142.355469 101.183594 C 141.808594 98.46875 143.222656 95.875 145.511719 95.402344 C 147.800781 94.925781 150.097656 96.75 150.640625 99.464844 Z M 150.640625 99.464844 " fill-opacity="1" fill-rule="nonzero"/><path fill="#ff6a76" d="M 140.5 126.191406 C 140.5 126.191406 136.980469 126.71875 135.546875 128.992188 C 129.417969 138.738281 117.496094 168.546875 117.496094 168.546875 L 129 173.628906 C 129 173.628906 144.121094 156.113281 145.511719 147.78125 C 146.902344 139.445312 140.5 126.191406 140.5 126.191406 Z M 140.5 126.191406 " fill-opacity="1" fill-rule="nonzero"/><path fill="#ffffff" d="M 127.910156 171.085938 L 151.515625 186.4375 L 148.183594 193.828125 C 148.183594 193.828125 126.941406 186.195312 120.40625 181.257812 C 113.882812 176.3125 117.488281 168.546875 117.488281 168.546875 C 117.488281 168.546875 121.109375 168.117188 127.910156 171.085938 Z M 127.910156 171.085938 " fill-opacity="1" fill-rule="nonzero"/><path fill="#ffffff" d="M 150.828125 186.195312 C 150.828125 186.195312 158.789062 185.820312 161.65625 185.820312 C 164.523438 185.820312 169.523438 190.527344 168.972656 192.03125 C 168.414062 193.539062 162.675781 188.925781 162.675781 188.925781 L 162.351562 189.542969 C 162.351562 189.542969 167.441406 192.648438 167.71875 193.828125 C 167.992188 195.007812 166.84375 194.820312 165.175781 194.109375 C 163.511719 193.402344 161.011719 191.800781 161.011719 191.800781 L 160.738281 192.132812 C 160.738281 192.132812 165.550781 195.101562 165.550781 196.179688 C 165.550781 197.269531 162.082031 196.035156 159.535156 194.34375 L 159.207031 194.863281 C 159.207031 194.863281 162.359375 196.464844 162.589844 197.5 C 162.820312 198.535156 161.105469 198.113281 159.207031 197.214844 C 157.308594 196.320312 155.550781 196.226562 153.09375 195.847656 C 150.640625 195.472656 147.726562 193.65625 147.726562 193.65625 Z M 150.828125 186.195312 " fill-opacity="1" fill-rule="nonzero"/><path fill="#4570b4" d="M 297.179688 143.148438 L 285.859375 199.902344 L 201.992188 199.902344 L 213.246094 143.472656 C 213.484375 142.277344 214.511719 141.421875 215.707031 141.421875 L 295.796875 141.421875 C 296.6875 141.421875 297.363281 142.257812 297.179688 143.148438 Z M 297.179688 143.148438 " fill-opacity="1" fill-rule="nonzero"/><path fill="#00496a" d="M 201.988281 199.902344 L 178.949219 192.410156 C 178.140625 192.140625 177.589844 191.386719 177.589844 190.527344 C 177.589844 189.433594 178.472656 188.550781 179.566406 188.550781 L 204.261719 188.550781 Z M 201.988281 199.902344 " fill-opacity="1" fill-rule="nonzero"/><path fill="#c6606c" d="M 141.519531 128.492188 C 141.519531 128.492188 146.675781 143.074219 143.554688 153.085938 C 143.554688 153.085938 154.101562 141.371094 141.519531 128.492188 Z M 141.519531 128.492188 " fill-opacity="1" fill-rule="nonzero"/><path fill="#c6606c" d="M 194.441406 158.769531 C 193.414062 157.410156 192.304688 155.824219 191.285156 154.109375 C 193.414062 145.746094 188.460938 127.125 188.460938 127.125 C 199.316406 140.960938 196.289062 153.8125 194.441406 158.769531 Z M 194.441406 158.769531 " fill-opacity="1" fill-rule="nonzero"/><path fill="#375c93" d="M 218.292969 144.789062 L 285.859375 199.902344 L 208.820312 199.902344 Z M 218.292969 144.789062 " fill-opacity="1" fill-rule="nonzero"/><path fill="#a6d6f7" d="M 258.902344 179.90625 C 262.34375 178.492188 263.984375 174.558594 262.570312 171.117188 C 261.15625 167.679688 257.21875 166.039062 253.777344 167.453125 C 250.335938 168.867188 248.695312 172.804688 250.113281 176.242188 C 251.527344 179.679688 255.464844 181.320312 258.902344 179.90625 Z M 258.902344 179.90625 " fill-opacity="1" fill-rule="nonzero"/><path fill="#ffa9b3" d="M 158.527344 117.363281 L 169.925781 128.957031 C 169.925781 128.957031 167.949219 131.75 164.660156 131.679688 C 161.375 131.597656 159.519531 127.421875 158.59375 125.242188 C 157.65625 123.0625 155.761719 120.6875 155.761719 120.6875 Z M 158.527344 117.363281 " fill-opacity="1" fill-rule="nonzero"/><path fill="#ffa9b3" d="M 169.925781 128.964844 C 169.925781 128.964844 172.867188 130.75 175.734375 129.503906 C 178.601562 128.269531 177.828125 126.371094 176.820312 124.367188 C 175.816406 122.367188 174.730469 118.796875 174.730469 118.796875 L 171.453125 116.914062 C 171.453125 116.914062 172.035156 124.539062 169.925781 128.964844 Z M 169.925781 128.964844 " fill-opacity="1" fill-rule="nonzero"/><path fill="#c6606c" d="M 187.503906 151.355469 L 158.78125 154.136719 C 158.78125 154.136719 165.21875 158.757812 175.132812 157.359375 C 185.050781 155.960938 187.503906 151.355469 187.503906 151.355469 Z M 187.503906 151.355469 " fill-opacity="1" fill-rule="nonzero"/><path fill="#4570b4" d="M 123.296875 57.988281 L 71.355469 57.988281 C 68.042969 57.988281 65.355469 60.671875 65.355469 63.980469 L 65.355469 77.746094 C 65.355469 81.054688 68.042969 83.742188 71.355469 83.742188 L 115.113281 83.742188 L 129.296875 91.9375 L 129.296875 63.980469 C 129.296875 60.671875 126.609375 57.988281 123.296875 57.988281 Z M 123.296875 57.988281 " fill-opacity="0.4196" fill-rule="nonzero"/><path stroke-linecap="round" transform="matrix(0.510421, 0, 0, 0.510451, 36.350781, 3.829849)" fill="none" stroke-linejoin="round" d="M 64.646351 118.297448 L 170.655591 118.297448 " stroke="#ffffff" stroke-width="1" stroke-opacity="1" stroke-miterlimit="10"/><path stroke-linecap="round" transform="matrix(0.510421, 0, 0, 0.510451, 36.350781, 3.829849)" fill="none" stroke-linejoin="round" d="M 64.646351 131.230263 L 170.655591 131.230263 " stroke="#ffffff" stroke-width="1" stroke-opacity="1" stroke-miterlimit="10"/><path stroke-linecap="round" transform="matrix(0.510421, 0, 0, 0.510451, 36.350781, 3.829849)" fill="none" stroke-linejoin="round" d="M 64.646351 144.170731 L 170.655591 144.170731 " stroke="#ffffff" stroke-width="1" stroke-opacity="1" stroke-miterlimit="10"/><path fill="#c6606c" d="M 126.273438 218.03125 C 127.636719 206.796875 118.765625 208.484375 112.695312 214.414062 C 106.625 220.34375 100.679688 217.035156 107.40625 205.957031 C 114.136719 194.878906 119.0625 191.476562 118.132812 185.902344 C 117.199219 180.324219 112.339844 182.765625 103.925781 187.398438 C 95.507812 192.03125 103.460938 179.925781 102.824219 168.445312 C 102.1875 156.960938 90.777344 162.695312 89.824219 172.367188 C 88.867188 182.035156 93.183594 192.859375 87.644531 190.714844 C 82.109375 188.5625 78.757812 175.726562 73.722656 181.789062 C 68.6875 187.847656 87.933594 208.402344 87.289062 214.609375 C 86.644531 220.8125 72.796875 201.902344 68.820312 208.128906 C 64.84375 214.355469 82.050781 255.929688 96.949219 254.761719 C 115.875 253.285156 124.914062 229.269531 126.273438 218.03125 Z M 126.273438 218.03125 " fill-opacity="1" fill-rule="nonzero"/><path stroke-linecap="butt" transform="matrix(0.510421, 0, 0, 0.510451, 36.350781, 3.829849)" fill="none" stroke-linejoin="miter" d="M 116.082107 332.829133 C 116.082107 332.829133 111.429089 358.304484 113.288766 390.59826 C 115.148442 422.907341 119.372894 504.185112 119.372894 504.185112 " stroke="#aa4451" stroke-width="1" stroke-opacity="1" stroke-miterlimit="10"/><path stroke-linecap="butt" transform="matrix(0.510421, 0, 0, 0.510451, 36.350781, 3.829849)" fill="none" stroke-linejoin="miter" d="M 84.398722 364.839765 C 84.398722 364.839765 105.827099 390.261547 113.602538 395.863217 C 113.602538 395.863217 141.268103 369.209373 146.548667 364.839765 " stroke="#aa4451" stroke-width="1" stroke-opacity="1" stroke-miterlimit="10"/><path stroke-linecap="butt" transform="matrix(0.510421, 0, 0, 0.510451, 36.350781, 3.829849)" fill="none" stroke-linejoin="miter" d="M 71.740674 415.721593 C 71.740674 415.721593 103.952116 448.114852 116.556593 450.257567 L 163.943917 418.49947 " stroke="#aa4451" stroke-width="1" stroke-opacity="1" stroke-miterlimit="10"/><path fill="#ff6a76" d="M 90.488281 248.382812 C 90.488281 248.382812 97.617188 232.628906 93.777344 224.164062 C 89.9375 215.699219 84.433594 220.667969 82.703125 227.414062 C 80.972656 234.164062 75.386719 234.375 75.386719 223.738281 C 75.386719 213.101562 77.394531 208.605469 74.359375 205.09375 C 71.324219 201.582031 68.957031 205.363281 65.023438 212.203125 C 61.089844 219.046875 61.511719 207.15625 56.167969 199.367188 C 50.820312 191.578125 45.265625 200.46875 48.714844 207.664062 C 52.167969 214.855469 59.816406 220.609375 55.015625 221.464844 C 50.210938 222.320312 42.382812 214.730469 41.433594 221.132812 C 40.484375 227.53125 62.765625 233.75 64.953125 238.378906 C 67.144531 243.003906 49.367188 235.640625 49.226562 241.707031 C 49.089844 247.773438 69.78125 258.417969 79.15625 256.832031 C 88.527344 255.246094 90.488281 248.382812 90.488281 248.382812 Z M 90.488281 248.382812 " fill-opacity="1" fill-rule="nonzero"/><path stroke-linecap="butt" transform="matrix(0.510421, 0, 0, 0.510451, 36.350781, 3.829849)" fill="none" stroke-linejoin="miter" d="M 32.511439 392.327737 C 32.511439 392.327737 85.64616 477.676666 96.827181 504.185112 " stroke="#aa4451" stroke-width="1" stroke-opacity="1" stroke-miterlimit="10"/><path stroke-linecap="butt" transform="matrix(0.510421, 0, 0, 0.510451, 36.350781, 3.829849)" fill="none" stroke-linejoin="miter" d="M 23.794681 432.840355 L 61.171892 439.505729 L 68.863149 407.38031 " stroke="#aa4451" stroke-width="1" stroke-opacity="1" stroke-miterlimit="10"/><path stroke-linecap="butt" transform="matrix(0.510421, 0, 0, 0.510451, 36.350781, 3.829849)" fill="none" stroke-linejoin="miter" d="M 43.547053 471.179648 L 83.47271 478.089904 L 99.934295 441.847411 " stroke="#aa4451" stroke-width="1" stroke-opacity="1" stroke-miterlimit="10"/><path fill="#375c93" d="M 78.371094 261.191406 L 112.839844 261.191406 L 109.878906 278.582031 L 81.964844 278.582031 Z M 78.371094 261.191406 " fill-opacity="1" fill-rule="nonzero"/><path fill="#4570b4" d="M 113.261719 266 L 78.261719 266 C 76.972656 266 75.9375 264.957031 75.9375 263.675781 L 75.9375 261.828125 C 75.9375 260.539062 76.980469 259.503906 78.261719 259.503906 L 113.261719 259.503906 C 114.550781 259.503906 115.585938 260.546875 115.585938 261.828125 L 115.585938 263.675781 C 115.59375 264.957031 114.550781 266 113.261719 266 Z M 113.261719 266 " fill-opacity="1" fill-rule="nonzero"/><g clip-path="url(#63a15a87df)"><path fill="#4570b4" d="M 237.863281 280.488281 C 251.078125 280.488281 261.792969 269.777344 261.792969 256.566406 C 261.792969 243.351562 251.078125 232.644531 237.863281 232.644531 C 224.648438 232.644531 213.933594 243.351562 213.933594 256.566406 C 213.933594 269.777344 224.648438 280.488281 237.863281 280.488281 Z M 237.863281 280.488281 " fill-opacity="0.4196" fill-rule="nonzero"/></g><path fill="#ffffff" d="M 252.898438 247.730469 L 222.820312 247.730469 C 221.996094 247.730469 221.328125 248.398438 221.328125 249.222656 L 221.328125 265.789062 C 221.328125 266.613281 221.996094 267.28125 222.820312 267.28125 L 252.898438 267.28125 C 253.726562 267.28125 254.390625 266.613281 254.390625 265.789062 L 254.390625 249.222656 C 254.390625 248.398438 253.726562 247.730469 252.898438 247.730469 Z M 253.347656 250.121094 L 239.226562 259.351562 C 239.101562 259.433594 238.964844 259.46875 238.828125 259.46875 C 238.703125 259.46875 238.582031 259.441406 238.472656 259.375 L 222.023438 250.144531 C 221.675781 249.945312 221.554688 249.503906 221.75 249.15625 C 221.945312 248.8125 222.386719 248.6875 222.734375 248.882812 L 238.804688 257.898438 L 252.558594 248.90625 C 252.890625 248.6875 253.339844 248.78125 253.558594 249.113281 C 253.777344 249.453125 253.679688 249.902344 253.347656 250.121094 Z M 253.347656 250.121094 " fill-opacity="1" fill-rule="nonzero"/><path fill="#ffa9b3" d="M 256.339844 253.988281 C 261.242188 253.988281 265.210938 250.015625 265.210938 245.117188 C 265.210938 240.21875 261.242188 236.25 256.339844 236.25 C 251.441406 236.25 247.46875 240.21875 247.46875 245.117188 C 247.46875 250.015625 251.441406 253.988281 256.339844 253.988281 Z M 256.339844 253.988281 " fill-opacity="1" fill-rule="nonzero"/></svg>