<svg xmlns="http://www.w3.org/2000/svg" xmlns:xlink="http://www.w3.org/1999/xlink" width="516" zoomAndPan="magnify" viewBox="0 0 386.88 284.999983" height="380" preserveAspectRatio="xMidYMid meet" version="1.0"><defs><clipPath id="ae7f0ed664"><path d="M 0 0.0429688 L 386.761719 0.0429688 L 386.761719 284.953125 L 0 284.953125 Z M 0 0.0429688 " clip-rule="nonzero"/></clipPath><clipPath id="92ccbcc4eb"><path d="M 70 196 L 191 196 L 191 284.953125 L 70 284.953125 Z M 70 196 " clip-rule="nonzero"/></clipPath><clipPath id="edea34f05e"><path d="M 190 232 L 260 232 L 260 284.953125 L 190 284.953125 Z M 190 232 " clip-rule="nonzero"/></clipPath><clipPath id="8f0e2b807f"><path d="M 46.410156 45 L 137 45 L 137 113 L 46.410156 113 Z M 46.410156 45 " clip-rule="nonzero"/></clipPath><clipPath id="8209b12775"><path d="M 63 0.0429688 L 130 0.0429688 L 130 47 L 63 47 Z M 63 0.0429688 " clip-rule="nonzero"/></clipPath><clipPath id="4dc91609e7"><path d="M 46.410156 49 L 133 49 L 133 180 L 46.410156 180 Z M 46.410156 49 " clip-rule="nonzero"/></clipPath></defs><g clip-path="url(#ae7f0ed664)"><path fill="#ffffff" d="M 0 0.0429688 L 386.878906 0.0429688 L 386.878906 292.453125 L 0 292.453125 Z M 0 0.0429688 " fill-opacity="1" fill-rule="nonzero"/><path fill="#ffffff" d="M 0 0.0429688 L 386.878906 0.0429688 L 386.878906 284.957031 L 0 284.957031 Z M 0 0.0429688 " fill-opacity="1" fill-rule="nonzero"/><path fill="#ffcd5e" d="M 0 0.0429688 L 386.878906 0.0429688 L 386.878906 284.957031 L 0 284.957031 Z M 0 0.0429688 " fill-opacity="1" fill-rule="nonzero"/></g><path fill="#4ac5f4" d="M 176.039062 51.378906 C 178.507812 53.195312 181.003906 55.371094 183.160156 57.824219 C 182.925781 56.027344 182.875 54.222656 182.894531 52.585938 C 183.042969 39.84375 195.800781 36.890625 204.835938 43.621094 C 212.125 49.050781 217.570312 57.097656 220.542969 65.75 C 220.839844 54.464844 231.304688 48.226562 240.707031 55.335938 C 247.707031 60.628906 252.730469 68.613281 255.660156 76.902344 C 264.207031 63.980469 278.691406 68.789062 288.777344 75.328125 C 312.449219 90.671875 334.523438 128.484375 333.339844 156.890625 C 332.972656 165.671875 331.324219 175.082031 323.066406 180.738281 C 315.207031 188.515625 304 183.808594 295.847656 180.011719 C 293.453125 178.898438 290.957031 177.355469 288.457031 175.605469 C 250.523438 149.027344 211.992188 122.539062 174.675781 95.835938 C 163.605469 87.914062 154.984375 72.476562 154.332031 58.871094 C 153.679688 45.375 167.859375 45.378906 176.039062 51.378906 " fill-opacity="1" fill-rule="nonzero"/><path fill="#6bcff6" d="M 183.855469 47.265625 C 184.144531 46.375 184.523438 45.574219 185.023438 44.949219 C 185.1875 44.746094 185.34375 44.550781 185.503906 44.347656 C 184.839844 45.195312 184.28125 46.164062 183.855469 47.265625 " fill-opacity="1" fill-rule="nonzero"/><path fill="#109fd8" d="M 220.542969 65.636719 L 220.515625 65.671875 C 217.535156 57.050781 212.101562 49.035156 204.835938 43.621094 C 198.382812 38.8125 190.027344 38.949219 185.730469 44.066406 C 192.0625 36.128906 196.21875 30.671875 202.695312 23 C 208.679688 15.902344 216.886719 11.972656 222.886719 12.632812 C 237.214844 14.203125 244.894531 32.128906 244.878906 32.148438 C 244.878906 32.148438 230.976562 47.871094 223.644531 56.628906 C 220.574219 60.292969 220.550781 64.910156 220.542969 65.636719 " fill-opacity="1" fill-rule="nonzero"/><path fill="#109fd8" d="M 185.503906 44.347656 C 185.34375 44.550781 185.1875 44.746094 185.023438 44.949219 C 184.523438 45.574219 184.144531 46.375 183.855469 47.265625 C 183.261719 48.792969 182.921875 50.566406 182.894531 52.585938 C 182.875 54.222656 182.925781 56.027344 183.160156 57.824219 C 181.003906 55.371094 178.507812 53.195312 176.039062 51.378906 C 170.175781 47.078125 161.234375 45.863281 156.878906 50.484375 C 160.46875 45.269531 170.363281 31.882812 183.898438 21.171875 C 183.898438 21.171875 192.738281 16.9375 202.65625 23.042969 C 196.199219 30.691406 192.046875 36.140625 185.726562 44.066406 C 185.652344 44.15625 185.578125 44.253906 185.503906 44.347656 " fill-opacity="1" fill-rule="nonzero"/><path fill="#109fd8" d="M 223.644531 56.628906 C 231.085938 47.648438 237.214844 40.507812 244.878906 32.148438 C 249.976562 26.578125 256.5625 24.371094 260.554688 24.800781 C 275.347656 26.402344 281.035156 43.515625 282.273438 47.984375 C 282.273438 47.984375 266.25 64.210938 260.5625 69.902344 C 259.414062 71.050781 255.941406 76.441406 255.941406 76.441406 L 255.625 76.820312 C 252.691406 68.558594 247.679688 60.609375 240.707031 55.335938 C 231.304688 48.226562 220.839844 54.464844 220.542969 65.75 C 220.542969 65.75 220.316406 60.640625 223.644531 56.628906 " fill-opacity="1" fill-rule="nonzero"/><path fill="#109fd8" d="M 323.066406 180.738281 C 331.324219 175.082031 332.972656 165.671875 333.339844 156.890625 C 334.203125 136.246094 323.792969 111.851562 308.402344 93.503906 C 299.882812 82.753906 289.074219 73.78125 279.640625 70.855469 C 271.199219 67.683594 262.046875 67.519531 255.832031 76.65625 L 255.75 76.738281 L 259.46875 70.96875 L 282.332031 47.925781 C 282.332031 47.925781 294.90625 36.6875 315.355469 46.355469 C 335.804688 56.023438 360.972656 86.152344 361.648438 124.144531 C 362.320312 162.140625 328.839844 182.828125 315.582031 184.851562 C 315.582031 184.851562 315.835938 184.746094 316.269531 184.527344 C 318.6875 183.96875 320.996094 182.789062 323.066406 180.738281 " fill-opacity="1" fill-rule="nonzero"/><g clip-path="url(#92ccbcc4eb)"><path fill="#8d8b8b" d="M 190.734375 284.894531 L 70.382812 200.617188 L 70.382812 196.246094 L 190.734375 280.519531 L 190.734375 284.894531 " fill-opacity="1" fill-rule="nonzero"/></g><g clip-path="url(#edea34f05e)"><path fill="#5c595a" d="M 190.722656 284.894531 L 259.0625 237.113281 L 259.0625 232.738281 L 190.722656 280.519531 L 190.722656 284.894531 " fill-opacity="1" fill-rule="nonzero"/></g><path fill="#b4b3b3" d="M 138.734375 148.4375 L 70.382812 196.246094 L 190.734375 280.519531 L 259.0625 232.738281 L 138.734375 148.4375 " fill-opacity="1" fill-rule="nonzero"/><path fill="#2b2323" d="M 259.0625 232.757812 L 138.734375 148.4375 L 138.734375 146.585938 L 259.0625 230.910156 L 259.0625 232.757812 " fill-opacity="1" fill-rule="nonzero"/><path fill="#171311" d="M 259.058594 237.132812 L 262.023438 235.054688 L 262.023438 228.695312 L 259.058594 230.910156 L 259.058594 237.132812 " fill-opacity="1" fill-rule="nonzero"/><path fill="#363233" d="M 141.699219 144.359375 L 138.734375 146.585938 L 259.0625 230.910156 L 262.023438 228.695312 L 141.699219 144.359375 " fill-opacity="1" fill-rule="nonzero"/><path fill="#8d8b8b" d="M 261.988281 228.699219 L 141.632812 144.320312 L 141.632812 50.570312 L 261.988281 134.949219 L 261.988281 228.699219 " fill-opacity="1" fill-rule="nonzero"/><path fill="#372b30" d="M 255.335938 216.917969 L 146.308594 140.515625 L 146.308594 61.445312 L 255.335938 137.847656 L 255.335938 216.917969 " fill-opacity="1" fill-rule="nonzero"/><path fill="#5c595a" d="M 261.988281 228.699219 L 265.894531 226.023438 L 265.894531 132.273438 L 261.988281 134.949219 L 261.988281 228.699219 " fill-opacity="1" fill-rule="nonzero"/><path fill="#b4b3b3" d="M 145.511719 47.910156 L 141.632812 50.570312 L 261.996094 134.953125 L 265.894531 132.273438 L 145.511719 47.910156 " fill-opacity="1" fill-rule="nonzero"/><path fill="#7f7d7e" d="M 141.496094 162.914062 L 136.097656 159.066406 L 136.097656 157.289062 L 141.496094 161.140625 L 141.496094 162.914062 " fill-opacity="1" fill-rule="nonzero"/><path fill="#484546" d="M 141.492188 162.914062 L 145.734375 159.804688 L 145.734375 158.027344 L 141.492188 161.140625 L 141.492188 162.914062 " fill-opacity="1" fill-rule="nonzero"/><path fill="#ffffff" d="M 140.347656 154.160156 L 136.097656 157.289062 L 141.496094 161.140625 L 145.734375 158.027344 L 140.347656 154.160156 " fill-opacity="1" fill-rule="nonzero"/><path fill="#7f7d7e" d="M 150.152344 168.980469 L 144.75 165.132812 L 144.75 163.355469 L 150.152344 167.203125 L 150.152344 168.980469 " fill-opacity="1" fill-rule="nonzero"/><path fill="#484546" d="M 150.144531 168.980469 L 154.386719 165.871094 L 154.386719 164.09375 L 150.144531 167.203125 L 150.144531 168.980469 " fill-opacity="1" fill-rule="nonzero"/><path fill="#ffffff" d="M 149 160.226562 L 144.75 163.355469 L 150.152344 167.203125 L 154.386719 164.09375 L 149 160.226562 " fill-opacity="1" fill-rule="nonzero"/><path fill="#7f7d7e" d="M 158.804688 175.046875 L 153.40625 171.195312 L 153.40625 169.421875 L 158.804688 173.269531 L 158.804688 175.046875 " fill-opacity="1" fill-rule="nonzero"/><path fill="#484546" d="M 158.796875 175.046875 L 163.039062 171.933594 L 163.039062 170.160156 L 158.796875 173.269531 L 158.796875 175.046875 " fill-opacity="1" fill-rule="nonzero"/><path fill="#ffffff" d="M 157.652344 166.292969 L 153.40625 169.421875 L 158.804688 173.269531 L 163.039062 170.160156 L 157.652344 166.292969 " fill-opacity="1" fill-rule="nonzero"/><path fill="#7f7d7e" d="M 167.457031 181.113281 L 162.058594 177.261719 L 162.058594 175.488281 L 167.457031 179.335938 L 167.457031 181.113281 " fill-opacity="1" fill-rule="nonzero"/><path fill="#484546" d="M 167.449219 181.113281 L 171.691406 178.003906 L 171.691406 176.226562 L 167.449219 179.335938 L 167.449219 181.113281 " fill-opacity="1" fill-rule="nonzero"/><path fill="#ffffff" d="M 166.308594 172.359375 L 162.058594 175.488281 L 167.457031 179.335938 L 171.691406 176.226562 L 166.308594 172.359375 " fill-opacity="1" fill-rule="nonzero"/><path fill="#7f7d7e" d="M 176.109375 187.175781 L 170.710938 183.328125 L 170.710938 181.550781 L 176.109375 185.402344 L 176.109375 187.175781 " fill-opacity="1" fill-rule="nonzero"/><path fill="#484546" d="M 176.101562 187.175781 L 180.34375 184.066406 L 180.34375 182.292969 L 176.101562 185.402344 L 176.101562 187.175781 " fill-opacity="1" fill-rule="nonzero"/><path fill="#ffffff" d="M 174.960938 178.425781 L 170.710938 181.550781 L 176.109375 185.402344 L 180.34375 182.292969 L 174.960938 178.425781 " fill-opacity="1" fill-rule="nonzero"/><path fill="#7f7d7e" d="M 184.761719 193.242188 L 179.363281 189.394531 L 179.363281 187.617188 L 184.761719 191.46875 L 184.761719 193.242188 " fill-opacity="1" fill-rule="nonzero"/><path fill="#484546" d="M 184.753906 193.242188 L 188.996094 190.132812 L 188.996094 188.355469 L 184.753906 191.46875 L 184.753906 193.242188 " fill-opacity="1" fill-rule="nonzero"/><path fill="#ffffff" d="M 183.613281 184.492188 L 179.363281 187.617188 L 184.761719 191.46875 L 188.996094 188.355469 L 183.613281 184.492188 " fill-opacity="1" fill-rule="nonzero"/><path fill="#7f7d7e" d="M 193.414062 199.308594 L 188.015625 195.460938 L 188.015625 193.683594 L 193.414062 197.535156 L 193.414062 199.308594 " fill-opacity="1" fill-rule="nonzero"/><path fill="#484546" d="M 193.40625 199.308594 L 197.652344 196.199219 L 197.652344 194.421875 L 193.40625 197.535156 L 193.40625 199.308594 " fill-opacity="1" fill-rule="nonzero"/><path fill="#ffffff" d="M 192.265625 190.558594 L 188.015625 193.683594 L 193.414062 197.535156 L 197.652344 194.421875 L 192.265625 190.558594 " fill-opacity="1" fill-rule="nonzero"/><path fill="#7f7d7e" d="M 202.066406 205.375 L 196.667969 201.527344 L 196.667969 199.75 L 202.066406 203.601562 L 202.066406 205.375 " fill-opacity="1" fill-rule="nonzero"/><path fill="#484546" d="M 202.0625 205.375 L 206.308594 202.265625 L 206.308594 200.488281 L 202.0625 203.601562 L 202.0625 205.375 " fill-opacity="1" fill-rule="nonzero"/><path fill="#ffffff" d="M 200.917969 196.621094 L 196.667969 199.75 L 202.066406 203.601562 L 206.308594 200.488281 L 200.917969 196.621094 " fill-opacity="1" fill-rule="nonzero"/><path fill="#7f7d7e" d="M 210.722656 211.441406 L 205.320312 207.589844 L 205.320312 205.816406 L 210.722656 209.667969 L 210.722656 211.441406 " fill-opacity="1" fill-rule="nonzero"/><path fill="#484546" d="M 210.714844 211.441406 L 214.960938 208.328125 L 214.960938 206.554688 L 210.714844 209.667969 L 210.714844 211.441406 " fill-opacity="1" fill-rule="nonzero"/><path fill="#ffffff" d="M 209.570312 202.6875 L 205.320312 205.816406 L 210.722656 209.667969 L 214.960938 206.554688 L 209.570312 202.6875 " fill-opacity="1" fill-rule="nonzero"/><path fill="#7f7d7e" d="M 219.375 217.503906 L 213.972656 213.65625 L 213.972656 211.878906 L 219.375 215.734375 L 219.375 217.503906 " fill-opacity="1" fill-rule="nonzero"/><path fill="#484546" d="M 219.367188 217.503906 L 223.613281 214.394531 L 223.613281 212.621094 L 219.367188 215.734375 L 219.367188 217.503906 " fill-opacity="1" fill-rule="nonzero"/><path fill="#ffffff" d="M 218.222656 208.753906 L 213.972656 211.878906 L 219.375 215.734375 L 223.613281 212.621094 L 218.222656 208.753906 " fill-opacity="1" fill-rule="nonzero"/><path fill="#7f7d7e" d="M 228.027344 223.570312 L 222.628906 219.722656 L 222.628906 217.949219 L 228.027344 221.800781 L 228.027344 223.570312 " fill-opacity="1" fill-rule="nonzero"/><path fill="#484546" d="M 228.019531 223.570312 L 232.265625 220.460938 L 232.265625 218.6875 L 228.019531 221.800781 L 228.019531 223.570312 " fill-opacity="1" fill-rule="nonzero"/><path fill="#ffffff" d="M 226.875 214.816406 L 222.628906 217.949219 L 228.027344 221.800781 L 232.265625 218.6875 L 226.875 214.816406 " fill-opacity="1" fill-rule="nonzero"/><path fill="#7f7d7e" d="M 236.679688 229.636719 L 231.28125 225.789062 L 231.28125 224.011719 L 236.679688 227.867188 L 236.679688 229.636719 " fill-opacity="1" fill-rule="nonzero"/><path fill="#484546" d="M 236.671875 229.636719 L 240.917969 226.527344 L 240.917969 224.75 L 236.671875 227.867188 L 236.671875 229.636719 " fill-opacity="1" fill-rule="nonzero"/><path fill="#ffffff" d="M 235.53125 220.886719 L 231.28125 224.011719 L 236.679688 227.867188 L 240.917969 224.75 L 235.53125 220.886719 " fill-opacity="1" fill-rule="nonzero"/><path fill="#7f7d7e" d="M 245.332031 235.703125 L 239.933594 231.855469 L 239.933594 230.078125 L 245.332031 233.929688 L 245.332031 235.703125 " fill-opacity="1" fill-rule="nonzero"/><path fill="#484546" d="M 245.328125 235.703125 L 249.570312 232.59375 L 249.570312 230.816406 L 245.328125 233.929688 L 245.328125 235.703125 " fill-opacity="1" fill-rule="nonzero"/><path fill="#ffffff" d="M 244.183594 226.949219 L 239.933594 230.078125 L 245.332031 233.929688 L 249.570312 230.816406 L 244.183594 226.949219 " fill-opacity="1" fill-rule="nonzero"/><path fill="#5c595a" d="M 130.214844 209.636719 L 114.660156 221.210938 L 151.027344 246.429688 L 166.566406 234.867188 L 130.214844 209.636719 " fill-opacity="1" fill-rule="nonzero"/><path fill="#7f7d7e" d="M 150.089844 181.105469 L 144.691406 177.257812 L 144.691406 175.480469 L 150.089844 179.335938 L 150.089844 181.105469 " fill-opacity="1" fill-rule="nonzero"/><path fill="#484546" d="M 150.085938 181.105469 L 154.328125 177.996094 L 154.328125 176.21875 L 150.085938 179.335938 L 150.085938 181.105469 " fill-opacity="1" fill-rule="nonzero"/><path fill="#ffffff" d="M 148.941406 172.351562 L 144.691406 175.480469 L 150.089844 179.335938 L 154.328125 176.21875 L 148.941406 172.351562 " fill-opacity="1" fill-rule="nonzero"/><path fill="#7f7d7e" d="M 158.746094 187.171875 L 153.34375 183.324219 L 153.34375 181.546875 L 158.746094 185.398438 L 158.746094 187.171875 " fill-opacity="1" fill-rule="nonzero"/><path fill="#484546" d="M 158.738281 187.171875 L 162.980469 184.0625 L 162.980469 182.285156 L 158.738281 185.398438 L 158.738281 187.171875 " fill-opacity="1" fill-rule="nonzero"/><path fill="#ffffff" d="M 157.59375 178.417969 L 153.34375 181.546875 L 158.746094 185.398438 L 162.980469 182.285156 L 157.59375 178.417969 " fill-opacity="1" fill-rule="nonzero"/><path fill="#7f7d7e" d="M 167.398438 193.238281 L 161.996094 189.386719 L 161.996094 187.613281 L 167.398438 191.464844 L 167.398438 193.238281 " fill-opacity="1" fill-rule="nonzero"/><path fill="#484546" d="M 167.390625 193.238281 L 171.636719 190.125 L 171.636719 188.351562 L 167.390625 191.464844 L 167.390625 193.238281 " fill-opacity="1" fill-rule="nonzero"/><path fill="#ffffff" d="M 166.246094 184.484375 L 161.996094 187.613281 L 167.398438 191.464844 L 171.636719 188.351562 L 166.246094 184.484375 " fill-opacity="1" fill-rule="nonzero"/><path fill="#7f7d7e" d="M 176.050781 199.300781 L 170.652344 195.453125 L 170.652344 193.675781 L 176.050781 197.53125 L 176.050781 199.300781 " fill-opacity="1" fill-rule="nonzero"/><path fill="#484546" d="M 176.042969 199.300781 L 180.285156 196.195312 L 180.285156 194.417969 L 176.042969 197.53125 L 176.042969 199.300781 " fill-opacity="1" fill-rule="nonzero"/><path fill="#ffffff" d="M 174.898438 190.550781 L 170.652344 193.675781 L 176.050781 197.53125 L 180.285156 194.417969 L 174.898438 190.550781 " fill-opacity="1" fill-rule="nonzero"/><path fill="#7f7d7e" d="M 184.703125 205.371094 L 179.304688 201.519531 L 179.304688 199.746094 L 184.703125 203.59375 L 184.703125 205.371094 " fill-opacity="1" fill-rule="nonzero"/><path fill="#484546" d="M 184.695312 205.371094 L 188.9375 202.257812 L 188.9375 200.484375 L 184.695312 203.59375 L 184.695312 205.371094 " fill-opacity="1" fill-rule="nonzero"/><path fill="#ffffff" d="M 183.554688 196.617188 L 179.304688 199.746094 L 184.703125 203.59375 L 188.9375 200.484375 L 183.554688 196.617188 " fill-opacity="1" fill-rule="nonzero"/><path fill="#7f7d7e" d="M 193.355469 211.4375 L 187.957031 207.585938 L 187.957031 205.808594 L 193.355469 209.664062 L 193.355469 211.4375 " fill-opacity="1" fill-rule="nonzero"/><path fill="#484546" d="M 193.347656 211.4375 L 197.59375 208.324219 L 197.59375 206.546875 L 193.347656 209.664062 L 193.347656 211.4375 " fill-opacity="1" fill-rule="nonzero"/><path fill="#ffffff" d="M 192.207031 202.679688 L 187.957031 205.808594 L 193.355469 209.664062 L 197.59375 206.546875 L 192.207031 202.679688 " fill-opacity="1" fill-rule="nonzero"/><path fill="#7f7d7e" d="M 202.007812 217.503906 L 196.609375 213.652344 L 196.609375 211.875 L 202.007812 215.726562 L 202.007812 217.503906 " fill-opacity="1" fill-rule="nonzero"/><path fill="#484546" d="M 202 217.503906 L 206.246094 214.390625 L 206.246094 212.613281 L 202 215.726562 L 202 217.503906 " fill-opacity="1" fill-rule="nonzero"/><path fill="#ffffff" d="M 200.859375 208.746094 L 196.609375 211.875 L 202.007812 215.726562 L 206.246094 212.613281 L 200.859375 208.746094 " fill-opacity="1" fill-rule="nonzero"/><path fill="#7f7d7e" d="M 210.660156 223.570312 L 205.261719 219.714844 L 205.261719 217.941406 L 210.660156 221.792969 L 210.660156 223.570312 " fill-opacity="1" fill-rule="nonzero"/><path fill="#484546" d="M 210.65625 223.570312 L 214.902344 220.453125 L 214.902344 218.679688 L 210.65625 221.792969 L 210.65625 223.570312 " fill-opacity="1" fill-rule="nonzero"/><path fill="#ffffff" d="M 209.511719 214.8125 L 205.261719 217.941406 L 210.660156 221.792969 L 214.902344 218.679688 L 209.511719 214.8125 " fill-opacity="1" fill-rule="nonzero"/><path fill="#7f7d7e" d="M 219.3125 229.636719 L 213.914062 225.78125 L 213.914062 224.007812 L 219.3125 227.859375 L 219.3125 229.636719 " fill-opacity="1" fill-rule="nonzero"/><path fill="#484546" d="M 219.308594 229.636719 L 223.554688 226.523438 L 223.554688 224.746094 L 219.308594 227.859375 L 219.308594 229.636719 " fill-opacity="1" fill-rule="nonzero"/><path fill="#ffffff" d="M 218.164062 220.878906 L 213.914062 224.007812 L 219.3125 227.859375 L 223.554688 224.746094 L 218.164062 220.878906 " fill-opacity="1" fill-rule="nonzero"/><path fill="#7f7d7e" d="M 227.96875 235.703125 L 222.566406 231.847656 L 222.566406 230.070312 L 227.96875 233.925781 L 227.96875 235.703125 " fill-opacity="1" fill-rule="nonzero"/><path fill="#484546" d="M 227.960938 235.703125 L 232.207031 232.585938 L 232.207031 230.8125 L 227.960938 233.925781 L 227.960938 235.703125 " fill-opacity="1" fill-rule="nonzero"/><path fill="#ffffff" d="M 226.816406 226.945312 L 222.566406 230.070312 L 227.96875 233.925781 L 232.207031 230.8125 L 226.816406 226.945312 " fill-opacity="1" fill-rule="nonzero"/><path fill="#7f7d7e" d="M 141.445312 175.039062 L 127.386719 165.125 L 127.386719 163.347656 L 141.445312 173.269531 L 141.445312 175.039062 " fill-opacity="1" fill-rule="nonzero"/><path fill="#ffffff" d="M 131.636719 160.222656 L 127.386719 163.347656 L 141.445312 173.269531 L 145.679688 170.15625 L 131.636719 160.222656 " fill-opacity="1" fill-rule="nonzero"/><path fill="#484546" d="M 141.429688 175.039062 L 145.675781 171.929688 L 145.675781 170.15625 L 141.429688 173.269531 L 141.429688 175.039062 " fill-opacity="1" fill-rule="nonzero"/><path fill="#7f7d7e" d="M 141.378906 187.167969 L 135.980469 183.316406 L 135.980469 181.539062 L 141.378906 185.394531 L 141.378906 187.167969 " fill-opacity="1" fill-rule="nonzero"/><path fill="#484546" d="M 141.371094 187.167969 L 145.613281 184.054688 L 145.613281 182.28125 L 141.371094 185.394531 L 141.371094 187.167969 " fill-opacity="1" fill-rule="nonzero"/><path fill="#ffffff" d="M 140.230469 178.414062 L 135.980469 181.539062 L 141.378906 185.394531 L 145.613281 182.28125 L 140.230469 178.414062 " fill-opacity="1" fill-rule="nonzero"/><path fill="#7f7d7e" d="M 150.03125 193.234375 L 144.632812 189.382812 L 144.632812 187.605469 L 150.03125 191.460938 L 150.03125 193.234375 " fill-opacity="1" fill-rule="nonzero"/><path fill="#484546" d="M 150.023438 193.234375 L 154.269531 190.121094 L 154.269531 188.34375 L 150.023438 191.460938 L 150.023438 193.234375 " fill-opacity="1" fill-rule="nonzero"/><path fill="#ffffff" d="M 148.882812 184.480469 L 144.632812 187.605469 L 150.03125 191.460938 L 154.269531 188.34375 L 148.882812 184.480469 " fill-opacity="1" fill-rule="nonzero"/><path fill="#7f7d7e" d="M 158.683594 199.300781 L 153.285156 195.449219 L 153.285156 193.671875 L 158.683594 197.523438 L 158.683594 199.300781 " fill-opacity="1" fill-rule="nonzero"/><path fill="#484546" d="M 158.679688 199.300781 L 162.925781 196.1875 L 162.925781 194.410156 L 158.679688 197.523438 L 158.679688 199.300781 " fill-opacity="1" fill-rule="nonzero"/><path fill="#ffffff" d="M 157.535156 190.542969 L 153.285156 193.671875 L 158.683594 197.523438 L 162.925781 194.410156 L 157.535156 190.542969 " fill-opacity="1" fill-rule="nonzero"/><path fill="#7f7d7e" d="M 167.335938 205.367188 L 161.9375 201.515625 L 161.9375 199.738281 L 167.335938 203.589844 L 167.335938 205.367188 " fill-opacity="1" fill-rule="nonzero"/><path fill="#484546" d="M 167.332031 205.367188 L 171.574219 202.253906 L 171.574219 200.476562 L 167.332031 203.589844 L 167.332031 205.367188 " fill-opacity="1" fill-rule="nonzero"/><path fill="#ffffff" d="M 166.1875 196.609375 L 161.9375 199.738281 L 167.335938 203.589844 L 171.574219 200.476562 L 166.1875 196.609375 " fill-opacity="1" fill-rule="nonzero"/><path fill="#7f7d7e" d="M 175.992188 211.433594 L 170.589844 207.578125 L 170.589844 205.804688 L 175.992188 209.65625 L 175.992188 211.433594 " fill-opacity="1" fill-rule="nonzero"/><path fill="#484546" d="M 175.984375 211.433594 L 180.226562 208.316406 L 180.226562 206.542969 L 175.984375 209.65625 L 175.984375 211.433594 " fill-opacity="1" fill-rule="nonzero"/><path fill="#ffffff" d="M 174.839844 202.675781 L 170.589844 205.804688 L 175.992188 209.65625 L 180.226562 206.542969 L 174.839844 202.675781 " fill-opacity="1" fill-rule="nonzero"/><path fill="#7f7d7e" d="M 184.644531 217.5 L 179.246094 213.644531 L 179.246094 211.871094 L 184.644531 215.722656 L 184.644531 217.5 " fill-opacity="1" fill-rule="nonzero"/><path fill="#484546" d="M 184.636719 217.5 L 188.878906 214.386719 L 188.878906 212.609375 L 184.636719 215.722656 L 184.636719 217.5 " fill-opacity="1" fill-rule="nonzero"/><path fill="#ffffff" d="M 183.492188 208.742188 L 179.246094 211.871094 L 184.644531 215.722656 L 188.878906 212.609375 L 183.492188 208.742188 " fill-opacity="1" fill-rule="nonzero"/><path fill="#7f7d7e" d="M 193.296875 223.566406 L 187.898438 219.710938 L 187.898438 217.9375 L 193.296875 221.789062 L 193.296875 223.566406 " fill-opacity="1" fill-rule="nonzero"/><path fill="#484546" d="M 193.289062 223.566406 L 197.535156 220.449219 L 197.535156 218.675781 L 193.289062 221.789062 L 193.289062 223.566406 " fill-opacity="1" fill-rule="nonzero"/><path fill="#ffffff" d="M 192.148438 214.808594 L 187.898438 217.9375 L 193.296875 221.789062 L 197.535156 218.675781 L 192.148438 214.808594 " fill-opacity="1" fill-rule="nonzero"/><path fill="#7f7d7e" d="M 201.949219 229.628906 L 196.550781 225.777344 L 196.550781 224.003906 L 201.949219 227.851562 L 201.949219 229.628906 " fill-opacity="1" fill-rule="nonzero"/><path fill="#484546" d="M 201.941406 229.628906 L 206.1875 226.515625 L 206.1875 224.738281 L 201.941406 227.851562 L 201.941406 229.628906 " fill-opacity="1" fill-rule="nonzero"/><path fill="#ffffff" d="M 200.800781 220.875 L 196.550781 224.003906 L 201.949219 227.851562 L 206.1875 224.738281 L 200.800781 220.875 " fill-opacity="1" fill-rule="nonzero"/><path fill="#7f7d7e" d="M 210.601562 235.695312 L 205.203125 231.84375 L 205.203125 230.070312 L 210.601562 233.917969 L 210.601562 235.695312 " fill-opacity="1" fill-rule="nonzero"/><path fill="#484546" d="M 210.59375 235.695312 L 214.839844 232.582031 L 214.839844 230.804688 L 210.59375 233.917969 L 210.59375 235.695312 " fill-opacity="1" fill-rule="nonzero"/><path fill="#ffffff" d="M 209.453125 226.9375 L 205.203125 230.070312 L 210.601562 233.917969 L 214.839844 230.804688 L 209.453125 226.9375 " fill-opacity="1" fill-rule="nonzero"/><path fill="#7f7d7e" d="M 227.914062 247.824219 L 213.855469 237.90625 L 213.855469 236.136719 L 227.914062 246.050781 L 227.914062 247.824219 " fill-opacity="1" fill-rule="nonzero"/><path fill="#7f7d7e" d="M 132.734375 181.101562 L 118.675781 171.183594 L 118.675781 169.410156 L 132.734375 179.328125 L 132.734375 181.101562 " fill-opacity="1" fill-rule="nonzero"/><path fill="#ffffff" d="M 122.921875 166.28125 L 118.675781 169.410156 L 132.734375 179.328125 L 136.96875 176.214844 L 122.921875 166.28125 " fill-opacity="1" fill-rule="nonzero"/><path fill="#484546" d="M 132.71875 181.101562 L 136.960938 177.988281 L 136.960938 176.214844 L 132.71875 179.328125 L 132.71875 181.101562 " fill-opacity="1" fill-rule="nonzero"/><path fill="#7f7d7e" d="M 115.359375 181.097656 L 109.960938 177.246094 L 109.960938 175.46875 L 115.359375 179.320312 L 115.359375 181.097656 " fill-opacity="1" fill-rule="nonzero"/><path fill="#484546" d="M 115.355469 181.097656 L 119.597656 177.984375 L 119.597656 176.210938 L 115.355469 179.320312 L 115.355469 181.097656 " fill-opacity="1" fill-rule="nonzero"/><path fill="#ffffff" d="M 114.210938 172.339844 L 109.960938 175.46875 L 115.359375 179.320312 L 119.597656 176.210938 L 114.210938 172.339844 " fill-opacity="1" fill-rule="nonzero"/><path fill="#7f7d7e" d="M 124.015625 187.164062 L 118.613281 183.308594 L 118.613281 181.535156 L 124.015625 185.386719 L 124.015625 187.164062 " fill-opacity="1" fill-rule="nonzero"/><path fill="#484546" d="M 124.007812 187.164062 L 128.25 184.050781 L 128.25 182.273438 L 124.007812 185.386719 L 124.007812 187.164062 " fill-opacity="1" fill-rule="nonzero"/><path fill="#ffffff" d="M 122.863281 178.40625 L 118.613281 181.535156 L 124.015625 185.386719 L 128.25 182.273438 L 122.863281 178.40625 " fill-opacity="1" fill-rule="nonzero"/><path fill="#7f7d7e" d="M 132.667969 193.230469 L 127.269531 189.378906 L 127.269531 187.601562 L 132.667969 191.453125 L 132.667969 193.230469 " fill-opacity="1" fill-rule="nonzero"/><path fill="#484546" d="M 132.660156 193.230469 L 136.90625 190.117188 L 136.90625 188.339844 L 132.660156 191.453125 L 132.660156 193.230469 " fill-opacity="1" fill-rule="nonzero"/><path fill="#ffffff" d="M 131.515625 184.472656 L 127.269531 187.601562 L 132.667969 191.453125 L 136.90625 188.339844 L 131.515625 184.472656 " fill-opacity="1" fill-rule="nonzero"/><path fill="#7f7d7e" d="M 141.320312 199.296875 L 135.921875 195.441406 L 135.921875 193.667969 L 141.320312 197.519531 L 141.320312 199.296875 " fill-opacity="1" fill-rule="nonzero"/><path fill="#484546" d="M 141.3125 199.296875 L 145.554688 196.179688 L 145.554688 194.40625 L 141.3125 197.519531 L 141.3125 199.296875 " fill-opacity="1" fill-rule="nonzero"/><path fill="#ffffff" d="M 140.171875 190.539062 L 135.921875 193.667969 L 141.320312 197.519531 L 145.554688 194.40625 L 140.171875 190.539062 " fill-opacity="1" fill-rule="nonzero"/><path fill="#7f7d7e" d="M 149.972656 205.359375 L 144.574219 201.507812 L 144.574219 199.734375 L 149.972656 203.585938 L 149.972656 205.359375 " fill-opacity="1" fill-rule="nonzero"/><path fill="#484546" d="M 149.964844 205.359375 L 154.207031 202.246094 L 154.207031 200.472656 L 149.964844 203.585938 L 149.964844 205.359375 " fill-opacity="1" fill-rule="nonzero"/><path fill="#ffffff" d="M 148.824219 196.605469 L 144.574219 199.734375 L 149.972656 203.585938 L 154.207031 200.472656 L 148.824219 196.605469 " fill-opacity="1" fill-rule="nonzero"/><path fill="#7f7d7e" d="M 158.625 211.425781 L 153.226562 207.574219 L 153.226562 205.800781 L 158.625 209.652344 L 158.625 211.425781 " fill-opacity="1" fill-rule="nonzero"/><path fill="#484546" d="M 158.617188 211.425781 L 162.859375 208.3125 L 162.859375 206.535156 L 158.617188 209.652344 L 158.617188 211.425781 " fill-opacity="1" fill-rule="nonzero"/><path fill="#ffffff" d="M 157.476562 202.667969 L 153.226562 205.800781 L 158.625 209.652344 L 162.859375 206.535156 L 157.476562 202.667969 " fill-opacity="1" fill-rule="nonzero"/><path fill="#7f7d7e" d="M 167.277344 217.492188 L 161.878906 213.640625 L 161.878906 211.867188 L 167.277344 215.714844 L 167.277344 217.492188 " fill-opacity="1" fill-rule="nonzero"/><path fill="#484546" d="M 167.269531 217.492188 L 171.515625 214.378906 L 171.515625 212.601562 L 167.269531 215.714844 L 167.269531 217.492188 " fill-opacity="1" fill-rule="nonzero"/><path fill="#ffffff" d="M 166.128906 208.734375 L 161.878906 211.867188 L 167.277344 215.714844 L 171.515625 212.601562 L 166.128906 208.734375 " fill-opacity="1" fill-rule="nonzero"/><path fill="#7f7d7e" d="M 175.929688 223.558594 L 170.53125 219.703125 L 170.53125 217.933594 L 175.929688 221.78125 L 175.929688 223.558594 " fill-opacity="1" fill-rule="nonzero"/><path fill="#484546" d="M 175.925781 223.558594 L 180.171875 220.445312 L 180.171875 218.667969 L 175.925781 221.78125 L 175.925781 223.558594 " fill-opacity="1" fill-rule="nonzero"/><path fill="#ffffff" d="M 174.78125 214.800781 L 170.53125 217.933594 L 175.929688 221.78125 L 180.171875 218.667969 L 174.78125 214.800781 " fill-opacity="1" fill-rule="nonzero"/><path fill="#7f7d7e" d="M 184.585938 229.625 L 179.183594 225.769531 L 179.183594 223.996094 L 184.585938 227.847656 L 184.585938 229.625 " fill-opacity="1" fill-rule="nonzero"/><path fill="#484546" d="M 184.578125 229.625 L 188.824219 226.511719 L 188.824219 224.734375 L 184.578125 227.847656 L 184.578125 229.625 " fill-opacity="1" fill-rule="nonzero"/><path fill="#ffffff" d="M 183.433594 220.871094 L 179.183594 223.996094 L 184.585938 227.847656 L 188.824219 224.734375 L 183.433594 220.871094 " fill-opacity="1" fill-rule="nonzero"/><path fill="#7f7d7e" d="M 193.238281 235.691406 L 187.835938 231.835938 L 187.835938 230.066406 L 193.238281 233.914062 L 193.238281 235.691406 " fill-opacity="1" fill-rule="nonzero"/><path fill="#484546" d="M 193.230469 235.691406 L 197.476562 232.574219 L 197.476562 230.800781 L 193.230469 233.914062 L 193.230469 235.691406 " fill-opacity="1" fill-rule="nonzero"/><path fill="#ffffff" d="M 192.085938 226.9375 L 187.835938 230.066406 L 193.238281 233.914062 L 197.476562 230.800781 L 192.085938 226.9375 " fill-opacity="1" fill-rule="nonzero"/><path fill="#7f7d7e" d="M 201.890625 241.753906 L 196.492188 237.902344 L 196.492188 236.128906 L 201.890625 239.980469 L 201.890625 241.753906 " fill-opacity="1" fill-rule="nonzero"/><path fill="#484546" d="M 201.882812 241.753906 L 206.128906 238.640625 L 206.128906 236.867188 L 201.882812 239.980469 L 201.882812 241.753906 " fill-opacity="1" fill-rule="nonzero"/><path fill="#ffffff" d="M 200.738281 233.003906 L 196.492188 236.128906 L 201.890625 239.980469 L 206.128906 236.867188 L 200.738281 233.003906 " fill-opacity="1" fill-rule="nonzero"/><path fill="#7f7d7e" d="M 210.542969 247.820312 L 205.144531 243.96875 L 205.144531 242.195312 L 210.542969 246.046875 L 210.542969 247.820312 " fill-opacity="1" fill-rule="nonzero"/><path fill="#484546" d="M 210.535156 247.820312 L 214.78125 244.707031 L 214.78125 242.9375 L 210.535156 246.046875 L 210.535156 247.820312 " fill-opacity="1" fill-rule="nonzero"/><path fill="#ffffff" d="M 209.394531 239.066406 L 205.144531 242.195312 L 210.542969 246.046875 L 214.78125 242.9375 L 209.394531 239.066406 " fill-opacity="1" fill-rule="nonzero"/><path fill="#7f7d7e" d="M 219.195312 253.886719 L 213.796875 250.035156 L 213.796875 248.261719 L 219.195312 252.109375 L 219.195312 253.886719 " fill-opacity="1" fill-rule="nonzero"/><path fill="#484546" d="M 219.191406 253.886719 L 223.433594 250.773438 L 223.433594 249 L 219.191406 252.109375 L 219.191406 253.886719 " fill-opacity="1" fill-rule="nonzero"/><path fill="#ffffff" d="M 218.046875 245.132812 L 213.796875 248.261719 L 219.195312 252.109375 L 223.433594 249 L 218.046875 245.132812 " fill-opacity="1" fill-rule="nonzero"/><path fill="#7f7d7e" d="M 106.648438 187.15625 L 101.25 183.304688 L 101.25 181.53125 L 106.648438 185.382812 L 106.648438 187.15625 " fill-opacity="1" fill-rule="nonzero"/><path fill="#484546" d="M 106.640625 187.15625 L 110.882812 184.042969 L 110.882812 182.269531 L 106.640625 185.382812 L 106.640625 187.15625 " fill-opacity="1" fill-rule="nonzero"/><path fill="#ffffff" d="M 105.5 178.402344 L 101.25 181.53125 L 106.648438 185.382812 L 110.882812 182.269531 L 105.5 178.402344 " fill-opacity="1" fill-rule="nonzero"/><path fill="#7f7d7e" d="M 115.300781 193.222656 L 109.902344 189.371094 L 109.902344 187.597656 L 115.300781 191.449219 L 115.300781 193.222656 " fill-opacity="1" fill-rule="nonzero"/><path fill="#484546" d="M 115.292969 193.222656 L 119.539062 190.109375 L 119.539062 188.335938 L 115.292969 191.449219 L 115.292969 193.222656 " fill-opacity="1" fill-rule="nonzero"/><path fill="#ffffff" d="M 114.152344 184.46875 L 109.902344 187.597656 L 115.300781 191.449219 L 119.539062 188.335938 L 114.152344 184.46875 " fill-opacity="1" fill-rule="nonzero"/><path fill="#7f7d7e" d="M 123.953125 199.289062 L 118.554688 195.4375 L 118.554688 193.664062 L 123.953125 197.511719 L 123.953125 199.289062 " fill-opacity="1" fill-rule="nonzero"/><path fill="#484546" d="M 123.949219 199.289062 L 128.191406 196.175781 L 128.191406 194.402344 L 123.949219 197.511719 L 123.949219 199.289062 " fill-opacity="1" fill-rule="nonzero"/><path fill="#ffffff" d="M 122.804688 190.535156 L 118.554688 193.664062 L 123.953125 197.511719 L 128.191406 194.402344 L 122.804688 190.535156 " fill-opacity="1" fill-rule="nonzero"/><path fill="#7f7d7e" d="M 175.871094 235.683594 L 170.472656 231.832031 L 170.472656 230.058594 L 175.871094 233.910156 L 175.871094 235.683594 " fill-opacity="1" fill-rule="nonzero"/><path fill="#484546" d="M 175.863281 235.683594 L 180.109375 232.570312 L 180.109375 230.796875 L 175.863281 233.910156 L 175.863281 235.683594 " fill-opacity="1" fill-rule="nonzero"/><path fill="#ffffff" d="M 174.722656 226.929688 L 170.472656 230.058594 L 175.871094 233.910156 L 180.109375 230.796875 L 174.722656 226.929688 " fill-opacity="1" fill-rule="nonzero"/><path fill="#7f7d7e" d="M 184.523438 241.75 L 179.125 237.902344 L 179.125 236.125 L 184.523438 239.972656 L 184.523438 241.75 " fill-opacity="1" fill-rule="nonzero"/><path fill="#484546" d="M 184.519531 241.75 L 188.765625 238.636719 L 188.765625 236.863281 L 184.519531 239.972656 L 184.519531 241.75 " fill-opacity="1" fill-rule="nonzero"/><path fill="#ffffff" d="M 183.375 232.996094 L 179.125 236.125 L 184.523438 239.972656 L 188.765625 236.863281 L 183.375 232.996094 " fill-opacity="1" fill-rule="nonzero"/><path fill="#7f7d7e" d="M 193.175781 247.816406 L 187.777344 243.964844 L 187.777344 242.191406 L 193.175781 246.039062 L 193.175781 247.816406 " fill-opacity="1" fill-rule="nonzero"/><path fill="#484546" d="M 193.171875 247.816406 L 197.417969 244.703125 L 197.417969 242.929688 L 193.171875 246.039062 L 193.171875 247.816406 " fill-opacity="1" fill-rule="nonzero"/><path fill="#ffffff" d="M 192.027344 239.0625 L 187.777344 242.191406 L 193.175781 246.039062 L 197.417969 242.929688 L 192.027344 239.0625 " fill-opacity="1" fill-rule="nonzero"/><path fill="#7f7d7e" d="M 201.832031 253.878906 L 196.429688 250.03125 L 196.429688 248.253906 L 201.832031 252.105469 L 201.832031 253.878906 " fill-opacity="1" fill-rule="nonzero"/><path fill="#484546" d="M 201.824219 253.878906 L 206.070312 250.769531 L 206.070312 248.996094 L 201.824219 252.105469 L 201.824219 253.878906 " fill-opacity="1" fill-rule="nonzero"/><path fill="#ffffff" d="M 200.679688 245.128906 L 196.429688 248.253906 L 201.832031 252.105469 L 206.070312 248.996094 L 200.679688 245.128906 " fill-opacity="1" fill-rule="nonzero"/><path fill="#7f7d7e" d="M 210.484375 259.945312 L 205.082031 256.097656 L 205.082031 254.320312 L 210.484375 258.171875 L 210.484375 259.945312 " fill-opacity="1" fill-rule="nonzero"/><path fill="#484546" d="M 210.476562 259.945312 L 214.722656 256.835938 L 214.722656 255.058594 L 210.476562 258.171875 L 210.476562 259.945312 " fill-opacity="1" fill-rule="nonzero"/><path fill="#ffffff" d="M 209.335938 251.195312 L 205.082031 254.320312 L 210.484375 258.171875 L 214.722656 255.058594 L 209.335938 251.195312 " fill-opacity="1" fill-rule="nonzero"/><path fill="#7f7d7e" d="M 167.226562 229.617188 L 127.207031 201.503906 L 127.207031 199.730469 L 167.226562 227.839844 L 167.226562 229.617188 " fill-opacity="1" fill-rule="nonzero"/><path fill="#ffffff" d="M 131.457031 196.601562 L 127.207031 199.730469 L 167.226562 227.839844 L 171.460938 224.734375 L 131.457031 196.601562 " fill-opacity="1" fill-rule="nonzero"/><path fill="#484546" d="M 167.210938 229.617188 L 171.457031 226.503906 L 171.457031 224.734375 L 167.210938 227.839844 L 167.210938 229.617188 " fill-opacity="1" fill-rule="nonzero"/><path fill="#484546" d="M 227.90625 247.824219 L 240.859375 238.652344 L 240.859375 236.878906 L 227.90625 246.050781 L 227.90625 247.824219 " fill-opacity="1" fill-rule="nonzero"/><path fill="#ffffff" d="M 235.46875 233.011719 L 226.808594 239.160156 L 218.105469 233.003906 L 213.855469 236.136719 L 227.914062 246.050781 L 240.859375 236.878906 L 235.46875 233.011719 " fill-opacity="1" fill-rule="nonzero"/><path fill="#deddde" d="M 203.117188 129.53125 C 200.191406 131.488281 195.574219 129.722656 192.804688 125.582031 C 190.035156 121.445312 190.160156 116.5 193.085938 114.539062 C 196.011719 112.582031 200.628906 114.347656 203.398438 118.484375 C 206.167969 122.625 206.042969 127.570312 203.117188 129.53125 Z M 229.515625 100.535156 C 213.378906 76.414062 186.480469 66.121094 169.433594 77.535156 C 152.390625 88.957031 151.65625 117.761719 167.796875 141.875 C 183.929688 165.992188 210.828125 176.289062 227.871094 164.871094 C 244.917969 153.453125 245.652344 124.644531 229.515625 100.535156 " fill-opacity="1" fill-rule="nonzero"/><path fill="#bbbaba" d="M 233.527344 98.0625 C 217.390625 73.945312 190.488281 63.652344 173.445312 75.070312 C 172.898438 75.4375 172.367188 75.824219 171.847656 76.226562 L 172.742188 75.214844 L 169.890625 77.246094 C 186.953125 66.304688 213.519531 76.628906 229.515625 100.535156 C 245.195312 123.964844 244.941406 151.824219 229.277344 163.855469 L 231.679688 162.53125 L 231.882812 162.398438 C 248.929688 150.980469 249.664062 122.171875 233.527344 98.0625 " fill-opacity="1" fill-rule="nonzero"/><path fill="#a7a5a6" d="M 203.117188 129.53125 C 200.191406 131.488281 195.574219 129.722656 192.804688 125.582031 C 190.035156 121.445312 190.160156 116.5 193.085938 114.539062 C 196.011719 112.582031 200.628906 114.347656 203.398438 118.484375 C 206.167969 122.625 206.042969 127.570312 203.117188 129.53125 Z M 209.722656 114.40625 C 203.691406 105.398438 193.644531 101.550781 187.277344 105.816406 C 180.910156 110.082031 180.636719 120.839844 186.667969 129.847656 C 192.691406 138.859375 202.738281 142.703125 209.109375 138.4375 C 215.472656 134.171875 215.75 123.410156 209.722656 114.40625 " fill-opacity="1" fill-rule="nonzero"/><path fill="#f89c0e" d="M 224.488281 245.519531 L 181.320312 215.226562 L 181.320312 172.035156 L 224.488281 202.332031 L 224.488281 245.519531 " fill-opacity="1" fill-rule="nonzero"/><path fill="#c1790b" d="M 224.488281 245.519531 L 237.570312 236.351562 L 237.570312 193.164062 L 224.488281 202.332031 L 224.488281 245.519531 " fill-opacity="1" fill-rule="nonzero"/><path fill="#fbc707" d="M 194.425781 162.839844 L 181.320312 172.035156 L 224.476562 202.335938 L 237.570312 193.164062 L 194.425781 162.839844 " fill-opacity="1" fill-rule="nonzero"/><path fill="#7b7979" d="M 227.140625 198.324219 C 225.21875 198.324219 223.664062 196.769531 223.660156 194.847656 L 223.648438 174.734375 C 223.648438 163.585938 218.398438 155.207031 208.042969 149.835938 C 205.476562 148.503906 199.328125 146.890625 196.746094 148.558594 C 196.394531 148.785156 195.324219 149.476562 195.492188 152.519531 L 195.496094 152.730469 C 195.46875 157.84375 195.449219 162.960938 195.425781 168.074219 L 195.417969 170.269531 C 195.40625 172.1875 193.835938 173.742188 191.921875 173.730469 C 190.003906 173.722656 188.453125 172.15625 188.464844 170.234375 L 188.46875 168.042969 C 188.496094 162.960938 188.519531 157.875 188.542969 152.792969 C 188.257812 147.019531 190.789062 144.128906 192.972656 142.714844 C 198.949219 138.847656 208.402344 142.1875 211.246094 143.660156 C 223.90625 150.230469 230.601562 160.976562 230.601562 174.734375 L 230.617188 194.84375 C 230.621094 196.765625 229.0625 198.324219 227.140625 198.324219 " fill-opacity="1" fill-rule="nonzero"/><path fill="#6d4205" d="M 208.53125 209.71875 C 208.53125 205.867188 204.730469 199.832031 201.578125 197.648438 C 198.421875 195.46875 194.574219 196.097656 194.574219 199.953125 C 194.574219 202.6875 196.324219 206.21875 198.5 208.863281 C 198.375 212.839844 198.3125 214.828125 198.1875 218.804688 C 200.675781 220.539062 202.066406 221.503906 204.652344 223.332031 C 204.585938 219.207031 204.550781 217.144531 204.476562 213.027344 C 206.71875 213.46875 208.53125 212.453125 208.53125 209.71875 " fill-opacity="1" fill-rule="nonzero"/><path fill="#c1790b" d="M 132.746094 179.015625 L 136.058594 176.605469 L 136.058594 109.769531 L 132.746094 112.179688 L 132.746094 179.015625 " fill-opacity="1" fill-rule="nonzero"/><g clip-path="url(#8f0e2b807f)"><path fill="#fbc707" d="M 92.960938 79.546875 C 92.960938 79.4375 92.960938 79.359375 92.960938 79.296875 C 92.960938 79.175781 92.960938 79.128906 92.960938 79.128906 L 92.960938 79.050781 C 92.960938 72.347656 89.347656 70.257812 86.898438 68.589844 C 77.535156 62.21875 65.558594 54.15625 55.214844 47.253906 C 49.550781 43.476562 46.945312 47.65625 46.945312 52.046875 C 46.945312 52.175781 46.945312 52.304688 46.945312 52.4375 C 47.046875 50.878906 49.074219 47.992188 52.148438 50.070312 C 60.265625 55.542969 75.691406 65.964844 82.433594 70.550781 C 84.882812 72.21875 88.496094 74.308594 88.496094 81.007812 L 88.496094 81.15625 L 92.960938 84.289062 L 92.960938 84.285156 L 132.75 112.179688 L 136.058594 109.769531 L 92.960938 79.546875 " fill-opacity="1" fill-rule="nonzero"/></g><path fill="#d5d4d5" d="M 126.992188 146.601562 L 63.1875 101.871094 L 63.1875 1.835938 L 126.992188 46.570312 L 126.992188 146.601562 " fill-opacity="1" fill-rule="nonzero"/><path fill="#605e5e" d="M 121 51.476562 L 68.359375 14.605469 L 68.359375 12.628906 L 121 49.503906 L 121 51.476562 " fill-opacity="1" fill-rule="nonzero"/><path fill="#605e5e" d="M 121 57.203125 L 68.359375 20.332031 L 68.359375 18.351562 L 121 55.226562 L 121 57.203125 " fill-opacity="1" fill-rule="nonzero"/><path fill="#605e5e" d="M 121 62.933594 L 68.359375 26.058594 L 68.359375 24.078125 L 121 60.953125 L 121 62.933594 " fill-opacity="1" fill-rule="nonzero"/><path fill="#605e5e" d="M 121 68.660156 L 68.359375 31.785156 L 68.359375 29.804688 L 121 66.679688 L 121 68.660156 " fill-opacity="1" fill-rule="nonzero"/><path fill="#605e5e" d="M 121 74.386719 L 68.359375 37.507812 L 68.359375 35.535156 L 121 72.40625 L 121 74.386719 " fill-opacity="1" fill-rule="nonzero"/><path fill="#605e5e" d="M 121 80.109375 L 68.359375 43.238281 L 68.359375 41.261719 L 121 78.136719 L 121 80.109375 " fill-opacity="1" fill-rule="nonzero"/><path fill="#605e5e" d="M 121 85.835938 L 68.359375 48.964844 L 68.359375 46.988281 L 121 83.863281 L 121 85.835938 " fill-opacity="1" fill-rule="nonzero"/><path fill="#605e5e" d="M 121 91.566406 L 68.359375 54.691406 L 68.359375 52.714844 L 121 89.589844 L 121 91.566406 " fill-opacity="1" fill-rule="nonzero"/><path fill="#605e5e" d="M 121 97.292969 L 68.359375 60.417969 L 68.359375 58.4375 L 121 95.316406 L 121 97.292969 " fill-opacity="1" fill-rule="nonzero"/><path fill="#605e5e" d="M 121 103.019531 L 68.359375 66.144531 L 68.359375 64.167969 L 121 101.039062 L 121 103.019531 " fill-opacity="1" fill-rule="nonzero"/><path fill="#605e5e" d="M 121 108.746094 L 68.359375 71.871094 L 68.359375 69.894531 L 121 106.769531 L 121 108.746094 " fill-opacity="1" fill-rule="nonzero"/><path fill="#605e5e" d="M 121 114.472656 L 68.359375 77.601562 L 68.359375 75.621094 L 121 112.496094 L 121 114.472656 " fill-opacity="1" fill-rule="nonzero"/><path fill="#605e5e" d="M 121 120.199219 L 68.359375 83.324219 L 68.359375 81.347656 L 121 118.222656 L 121 120.199219 " fill-opacity="1" fill-rule="nonzero"/><path fill="#605e5e" d="M 121 125.925781 L 68.359375 89.050781 L 68.359375 87.074219 L 121 123.949219 L 121 125.925781 " fill-opacity="1" fill-rule="nonzero"/><path fill="#605e5e" d="M 121 131.652344 L 68.359375 94.777344 L 68.359375 92.804688 L 121 129.675781 L 121 131.652344 " fill-opacity="1" fill-rule="nonzero"/><path fill="#605e5e" d="M 121 137.378906 L 68.359375 100.503906 L 68.359375 98.53125 L 121 135.402344 L 121 137.378906 " fill-opacity="1" fill-rule="nonzero"/><path fill="#a7a5a6" d="M 126.992188 146.601562 L 129.457031 144.863281 L 129.457031 44.828125 L 126.992188 46.570312 L 126.992188 146.601562 " fill-opacity="1" fill-rule="nonzero"/><g clip-path="url(#8209b12775)"><path fill="#e9e9e9" d="M 65.636719 0.0195312 L 63.1875 1.835938 L 127 46.570312 L 129.457031 44.828125 L 65.636719 0.0195312 " fill-opacity="1" fill-rule="nonzero"/></g><g clip-path="url(#4dc91609e7)"><path fill="#f89c0e" d="M 88.496094 81.15625 C 88.496094 80.273438 88.496094 81.667969 88.496094 81.007812 C 88.496094 74.308594 84.882812 72.21875 82.433594 70.550781 C 75.691406 65.964844 60.265625 55.542969 52.148438 50.070312 C 48.992188 47.9375 46.9375 51.035156 46.9375 52.558594 C 46.9375 68.503906 46.9375 118.859375 46.9375 118.859375 L 132.742188 179.015625 L 132.742188 112.179688 L 88.496094 81.15625 " fill-opacity="1" fill-rule="nonzero"/></g><path fill="#fbc707" d="M 134.402344 110.976562 L 92.960938 81.917969 C 92.960938 81.808594 92.960938 81.730469 92.960938 81.667969 C 92.960938 81.546875 92.960938 81.503906 92.960938 81.5 L 92.960938 81.417969 C 92.960938 74.722656 89.347656 72.628906 86.898438 70.964844 C 77.535156 64.589844 65.558594 56.527344 55.214844 49.628906 C 51.339844 47.042969 48.894531 48.183594 47.738281 50.570312 C 48.613281 49.460938 50.160156 48.726562 52.148438 50.070312 C 60.265625 55.542969 75.691406 65.964844 82.433594 70.550781 C 84.882812 72.21875 88.496094 74.308594 88.496094 81.007812 L 88.496094 81.15625 L 92.960938 84.289062 L 92.960938 84.285156 L 132.75 112.179688 L 134.402344 110.976562 " fill-opacity="1" fill-rule="nonzero"/></svg>